<svg id="svg" version="1.1" xmlns="http://www.w3.org/2000/svg" xmlns:xlink="http://www.w3.org/1999/xlink" width="400" height="409.5980803839232" viewBox="0, 0, 400,409.5980803839232"><g id="svgg"><path id="path0" d="M336.126 124.109 C 336.177 126.253,336.112 127.319,335.915 127.556 C 335.671 127.849,333.046 127.899,318.197 127.891 L 300.766 127.882 282.896 145.782 C 273.068 155.627,264.811 163.809,264.547 163.964 C 264.181 164.180,238.514 164.276,156.644 164.367 L 49.222 164.487 48.529 165.150 C 48.149 165.515,47.759 165.736,47.664 165.641 C 47.569 165.546,47.429 165.706,47.353 165.997 C 47.277 166.288,47.137 166.527,47.041 166.527 C 46.359 166.527,46.069 169.370,46.688 169.989 C 46.895 170.196,46.993 170.366,46.905 170.366 C 45.684 170.366,50.058 172.778,51.374 172.830 C 52.219 172.864,52.317 172.936,52.415 173.596 C 52.474 173.997,52.913 177.349,53.390 181.044 C 53.868 184.739,54.845 191.758,55.563 196.641 C 56.280 201.524,56.920 205.951,56.984 206.479 C 57.312 209.195,58.126 214.682,58.246 214.997 C 58.322 215.195,58.420 215.992,58.463 216.768 C 58.507 217.545,58.651 218.310,58.783 218.470 C 58.916 218.630,58.969 218.816,58.901 218.883 C 58.722 219.062,59.978 227.499,60.274 228.111 C 60.412 228.396,60.459 228.735,60.379 228.865 C 60.298 228.995,60.344 229.626,60.481 230.267 C 60.617 230.909,60.735 231.596,60.742 231.794 C 60.782 232.897,61.491 237.257,61.690 237.622 C 61.819 237.859,61.865 238.146,61.794 238.262 C 61.618 238.546,62.350 243.300,62.669 243.948 C 62.809 244.233,62.863 244.563,62.789 244.683 C 62.610 244.973,63.305 249.530,63.629 250.187 C 63.769 250.471,63.821 250.806,63.744 250.930 C 63.610 251.147,65.149 261.293,65.428 262.028 C 65.503 262.226,65.592 262.676,65.626 263.029 C 65.759 264.404,68.115 266.756,70.395 267.790 L 71.881 268.463 158.856 268.545 L 245.831 268.626 247.660 267.882 L 249.489 267.138 250.402 267.582 C 250.904 267.826,251.395 268.026,251.492 268.026 C 251.783 268.026,255.413 270.494,255.621 270.833 C 255.726 271.005,255.948 271.146,256.114 271.146 C 256.579 271.146,257.731 272.505,259.163 274.745 C 259.881 275.867,260.550 276.821,260.649 276.865 C 260.749 276.909,260.775 277.036,260.707 277.146 C 260.639 277.256,260.754 277.517,260.963 277.725 C 261.171 277.934,261.288 278.104,261.222 278.104 C 261.156 278.104,261.363 278.749,261.683 279.536 C 262.354 281.188,263.102 284.927,263.077 286.503 C 263.055 287.912,262.845 289.887,262.669 290.342 C 262.593 290.540,262.480 291.026,262.419 291.422 C 262.047 293.824,259.925 297.716,257.546 300.359 L 256.629 301.377 254.180 300.181 C 248.967 297.634,239.902 296.852,236.955 298.695 C 236.822 298.778,236.498 298.880,236.235 298.921 C 233.193 299.393,227.525 303.887,225.907 307.110 C 225.379 308.160,225.182 308.340,224.407 308.474 C 223.917 308.559,223.089 308.719,222.568 308.829 C 222.048 308.938,221.550 308.984,221.462 308.930 C 221.374 308.875,218.723 309.049,215.570 309.316 C 212.417 309.583,208.110 309.903,205.999 310.026 C 203.887 310.150,199.298 310.479,195.801 310.756 C 192.304 311.034,187.930 311.356,186.083 311.472 C 184.235 311.588,181.266 311.788,179.484 311.917 C 177.702 312.046,174.409 312.265,172.166 312.404 C 169.922 312.543,163.659 312.995,158.248 313.409 C 152.837 313.823,147.816 314.190,147.091 314.224 C 145.303 314.307,141.502 314.540,135.385 314.941 C 130.198 315.281,129.514 315.254,129.720 314.716 C 130.155 313.584,127.044 308.957,124.383 306.777 C 114.493 298.675,98.743 306.303,99.400 318.877 C 99.515 321.078,100.282 323.926,100.815 324.135 C 100.928 324.179,101.020 324.381,101.020 324.585 C 101.020 326.821,107.173 331.519,110.886 332.117 C 111.709 332.249,112.480 332.418,112.600 332.492 C 113.043 332.766,117.064 332.592,118.616 332.232 C 123.653 331.063,127.969 327.148,129.347 322.496 C 130.057 320.101,129.934 320.188,132.874 319.998 C 135.427 319.834,138.206 319.640,145.411 319.126 C 151.208 318.713,154.534 318.492,159.208 318.209 C 161.584 318.065,166.443 317.716,170.006 317.434 C 176.648 316.909,179.220 316.727,186.323 316.283 C 188.566 316.143,197.308 315.540,205.749 314.943 C 214.191 314.346,221.452 313.857,221.886 313.857 L 222.675 313.857 222.675 317.213 C 222.675 319.059,222.794 321.083,222.939 321.712 C 223.548 324.357,223.706 324.843,224.407 326.215 C 232.770 342.572,255.656 342.323,263.598 325.788 C 266.552 319.638,266.018 313.378,262.009 307.163 L 260.400 304.668 261.228 303.564 C 261.683 302.956,262.482 301.920,263.003 301.260 C 269.111 293.520,269.405 281.564,263.698 272.965 C 261.359 269.440,254.709 263.467,253.123 263.467 C 252.749 263.467,253.033 261.017,254.252 253.749 C 254.451 252.561,254.720 250.726,254.849 249.670 C 254.978 248.614,255.192 246.995,255.324 246.071 C 255.457 245.147,255.658 243.743,255.772 242.951 C 255.885 242.160,256.098 240.851,256.244 240.043 C 256.390 239.235,256.625 237.615,256.767 236.444 C 256.909 235.272,257.117 233.665,257.230 232.873 C 257.766 229.111,257.998 227.481,258.188 226.155 C 258.607 223.231,258.947 220.838,259.143 219.436 C 259.253 218.644,260.112 212.759,261.051 206.359 C 261.990 199.958,262.872 193.803,263.011 192.681 C 263.150 191.560,263.356 189.994,263.468 189.202 C 263.581 188.410,263.796 186.899,263.945 185.843 C 264.095 184.787,264.325 183.167,264.457 182.244 C 264.589 181.320,264.785 179.916,264.894 179.124 C 265.002 178.332,265.211 176.983,265.358 176.125 C 265.506 175.267,265.683 174.228,265.752 173.815 C 265.869 173.117,265.973 173.047,267.285 172.789 C 270.806 172.096,272.800 168.712,271.045 166.410 L 270.463 165.648 286.824 149.289 L 303.184 132.930 319.498 132.992 L 335.813 133.053 335.881 135.753 L 335.949 138.452 343.575 138.452 C 352.585 138.452,353.443 138.340,355.669 136.875 C 359.103 134.614,360.330 130.763,358.993 126.435 C 358.548 124.994,355.507 121.984,354.312 121.802 C 354.167 121.780,353.894 121.666,353.705 121.548 C 353.316 121.304,351.189 121.220,342.292 121.094 L 336.053 121.005 336.126 124.109 M77.305 182.269 C 80.356 183.044,82.911 184.738,84.090 186.766 C 84.809 188.005,85.294 190.781,85.897 197.121 C 86.023 198.440,86.245 200.330,86.392 201.320 C 86.669 203.195,86.884 205.129,87.315 209.630 C 87.456 211.099,87.691 213.259,87.838 214.429 C 88.088 216.422,88.217 217.607,88.776 223.035 C 89.608 231.131,89.901 234.169,90.206 237.912 C 90.357 239.760,90.587 242.082,90.718 243.071 C 91.702 250.559,91.718 255.895,90.760 257.274 C 87.791 261.551,78.832 260.725,76.586 255.968 C 76.321 255.408,75.932 253.761,75.721 252.310 C 74.223 241.992,73.989 240.264,73.442 235.513 C 73.290 234.193,73.053 232.466,72.915 231.674 C 72.655 230.180,72.462 228.634,71.999 224.355 C 71.849 222.969,71.615 221.134,71.480 220.276 C 71.344 219.418,71.142 217.798,71.031 216.677 C 70.529 211.616,69.088 199.661,68.869 198.737 C 68.735 198.174,68.625 197.256,68.624 196.697 C 68.623 196.138,68.461 194.389,68.264 192.811 C 67.459 186.350,69.037 183.287,73.693 182.278 C 75.747 181.832,75.586 181.833,77.305 182.269 M119.057 182.267 C 125.749 183.958,126.539 185.670,127.176 199.880 C 127.384 204.525,127.573 208.603,127.786 213.077 C 128.138 220.450,128.436 227.260,128.604 231.794 C 128.714 234.763,128.869 238.704,128.949 240.552 C 129.028 242.400,129.129 244.829,129.172 245.951 C 129.215 247.073,129.332 249.556,129.431 251.470 L 129.612 254.949 128.915 256.269 C 125.892 261.990,115.350 261.015,113.756 254.867 C 113.631 254.384,113.353 251.614,113.138 248.710 C 112.923 245.807,112.475 239.868,112.144 235.513 C 111.493 226.966,111.265 223.562,110.881 216.677 C 110.745 214.235,110.515 210.834,110.371 209.118 C 110.227 207.403,110.029 204.214,109.931 202.033 C 109.833 199.852,109.684 197.957,109.601 197.822 C 109.053 196.935,109.349 187.740,109.965 186.537 C 110.927 184.655,112.721 183.183,114.785 182.581 C 115.726 182.306,116.605 182.046,116.737 182.002 C 117.200 181.847,117.551 181.887,119.057 182.267 M161.060 182.339 C 164.006 182.982,166.987 185.351,167.711 187.625 C 167.893 188.197,167.869 212.289,167.674 224.235 C 167.580 230.042,167.488 239.004,167.470 244.151 C 167.453 249.298,167.352 253.239,167.247 252.909 C 167.103 252.462,167.048 252.687,167.031 253.794 C 166.904 261.670,153.099 262.457,151.546 254.676 C 151.234 253.110,151.150 249.874,150.795 225.675 C 150.558 209.490,150.619 189.157,150.907 188.122 C 151.263 186.845,152.298 184.641,152.698 184.309 C 153.484 183.657,155.889 182.598,157.090 182.376 C 157.836 182.238,158.509 182.063,158.586 181.986 C 158.725 181.846,158.938 181.877,161.060 182.339 M202.263 182.154 C 204.698 182.922,205.362 183.210,206.276 183.896 C 209.411 186.246,209.671 187.777,208.763 198.560 C 208.618 200.276,208.401 203.731,208.280 206.239 C 208.158 208.746,207.840 213.551,207.572 216.917 C 207.304 220.282,206.966 225.033,206.820 227.475 C 206.400 234.535,205.718 244.272,205.132 251.590 C 204.834 255.304,204.416 256.356,202.610 257.942 C 198.456 261.590,191.166 260.456,189.423 255.891 C 189.067 254.961,189.039 254.209,189.189 249.731 C 189.598 237.540,189.781 232.814,190.021 228.194 C 190.162 225.489,190.384 220.522,190.514 217.157 C 190.645 213.791,190.811 210.228,190.883 209.238 C 190.955 208.248,191.049 206.197,191.091 204.679 C 191.133 203.161,191.234 201.650,191.315 201.320 C 191.396 200.990,191.578 197.966,191.721 194.601 C 192.025 187.415,192.164 186.938,194.613 184.670 C 196.232 183.171,196.982 182.766,199.040 182.278 C 200.889 181.840,201.226 181.827,202.263 182.154 M243.671 182.124 C 243.753 182.256,244.110 182.364,244.465 182.364 C 245.625 182.364,247.932 183.654,249.104 184.957 C 250.669 186.698,250.796 187.730,250.133 193.281 C 249.928 194.997,249.651 197.481,249.518 198.800 C 249.384 200.120,249.177 202.064,249.057 203.119 C 248.937 204.175,248.741 205.903,248.621 206.959 C 248.501 208.014,247.954 212.388,247.407 216.677 C 246.860 220.966,246.299 225.555,246.160 226.875 C 246.022 228.194,245.813 230.030,245.697 230.954 C 245.580 231.878,245.378 233.497,245.248 234.553 C 245.117 235.609,244.898 237.283,244.760 238.272 C 244.523 239.977,244.339 241.379,243.768 245.831 C 243.633 246.887,243.427 248.398,243.312 249.190 C 243.196 249.982,242.997 251.386,242.869 252.310 C 242.246 256.820,240.808 258.509,236.556 259.721 C 232.836 260.782,228.564 259.394,227.280 256.709 C 226.747 255.596,226.780 253.933,227.483 246.311 C 227.617 244.859,227.820 242.591,227.933 241.272 C 228.047 239.952,228.585 234.661,229.129 229.514 C 229.674 224.367,230.234 218.860,230.374 217.277 C 230.514 215.693,230.727 213.425,230.847 212.238 C 230.968 211.050,231.165 209.106,231.286 207.918 C 231.406 206.731,231.736 203.923,232.019 201.680 C 232.302 199.436,232.633 196.467,232.755 195.081 C 233.482 186.838,235.015 184.066,239.594 182.722 C 240.385 182.490,241.302 182.215,241.632 182.111 C 242.494 181.838,243.499 181.845,243.671 182.124 " stroke="none" fill="#437373" fill-rule="evenodd"></path><path id="path1" d="M188.962 20.177 C 186.587 20.281,183.725 20.484,182.603 20.629 C 181.482 20.774,179.646 21.005,178.524 21.142 C 101.472 30.548,39.871 89.369,24.382 168.326 C 18.652 197.534,20.980 230.561,30.951 261.548 C 45.894 307.986,82.781 349.180,127.415 369.275 C 128.932 369.959,130.498 370.663,130.894 370.842 C 163.710 385.615,210.148 389.052,244.631 379.261 C 245.291 379.074,246.803 378.649,247.990 378.318 C 295.265 365.119,335.959 331.234,358.832 286.023 C 383.320 237.620,385.309 180.223,364.233 130.174 C 362.083 125.070,362.056 125.015,361.712 125.015 C 361.539 125.015,361.462 124.828,361.528 124.573 C 361.661 124.065,357.161 115.081,354.299 110.138 C 326.833 62.718,280.553 30.613,227.235 21.995 C 218.582 20.596,216.659 20.434,205.452 20.156 C 195.062 19.898,195.395 19.898,188.962 20.177 M352.784 121.217 C 353.607 121.374,354.098 121.577,354.007 121.724 C 353.921 121.863,353.973 121.897,354.125 121.803 C 354.703 121.446,357.941 123.821,357.609 124.358 C 357.524 124.497,357.569 124.539,357.711 124.451 C 357.852 124.363,358.201 124.670,358.487 125.133 C 358.802 125.643,359.213 125.988,359.528 126.007 C 360.017 126.038,360.014 126.047,359.485 126.147 C 359.028 126.234,358.956 126.351,359.099 126.774 C 359.395 127.648,359.474 132.933,359.191 132.933 C 359.053 132.933,359.007 133.041,359.088 133.173 C 359.170 133.305,359.116 133.413,358.968 133.413 C 358.821 133.413,358.767 133.521,358.848 133.653 C 358.930 133.785,358.876 133.893,358.728 133.893 C 358.581 133.893,358.520 133.990,358.593 134.108 C 358.666 134.226,358.557 134.387,358.352 134.466 C 358.146 134.545,358.035 134.701,358.104 134.813 C 358.173 134.925,357.856 135.379,357.399 135.822 C 356.942 136.265,356.566 136.525,356.563 136.400 C 356.560 136.275,356.335 136.443,356.063 136.773 C 355.790 137.103,355.639 137.211,355.726 137.013 C 355.813 136.815,355.714 136.862,355.507 137.118 C 355.299 137.375,355.129 137.489,355.129 137.373 C 355.129 137.256,354.994 137.334,354.829 137.546 C 354.169 138.393,351.173 138.692,343.346 138.692 L 335.933 138.692 335.933 136.202 C 335.933 134.351,335.846 133.640,335.594 133.431 C 335.141 133.055,318.369 132.804,309.658 133.042 L 303.179 133.220 287.163 149.291 C 278.353 158.130,271.146 165.523,271.146 165.720 C 271.146 165.917,271.272 166.314,271.426 166.602 C 271.760 167.225,271.705 169.285,271.337 169.987 C 270.938 170.748,269.769 172.028,269.614 171.874 C 269.539 171.799,269.411 171.909,269.331 172.119 C 269.245 172.342,268.647 172.621,267.889 172.790 C 267.176 172.950,266.447 173.252,266.268 173.463 C 265.985 173.795,265.272 177.041,265.386 177.474 C 265.409 177.560,265.322 177.697,265.192 177.778 C 265.063 177.858,264.921 178.626,264.877 179.484 C 264.833 180.342,264.725 181.098,264.637 181.164 C 264.549 181.230,264.441 181.986,264.397 182.843 C 264.353 183.701,264.245 184.457,264.157 184.523 C 264.069 184.589,263.961 185.345,263.917 186.203 C 263.873 187.061,263.762 187.818,263.670 187.885 C 263.578 187.953,263.471 188.736,263.431 189.625 C 263.391 190.514,263.275 191.242,263.173 191.242 C 263.071 191.242,262.987 192.046,262.987 193.030 C 262.987 194.013,262.890 195.336,262.771 195.969 C 262.652 196.602,262.430 198.038,262.279 199.160 C 262.128 200.282,261.908 201.848,261.791 202.639 C 261.673 203.431,261.455 204.943,261.308 205.999 C 261.160 207.055,260.943 208.566,260.825 209.358 C 260.707 210.150,260.486 211.716,260.335 212.837 C 260.183 213.959,259.939 215.471,259.792 216.197 C 259.646 216.923,259.522 217.624,259.517 217.756 C 259.512 217.888,259.438 218.050,259.353 218.116 C 259.268 218.182,259.162 218.938,259.118 219.796 C 259.074 220.654,258.966 221.410,258.878 221.476 C 258.790 221.542,258.682 222.298,258.638 223.155 C 258.594 224.013,258.483 224.770,258.391 224.838 C 258.300 224.906,258.192 225.688,258.152 226.578 C 258.112 227.467,258.009 228.194,257.922 228.194 C 257.835 228.194,257.698 228.869,257.618 229.694 C 257.537 230.519,257.363 231.950,257.229 232.873 C 257.096 233.797,256.889 235.687,256.769 237.073 C 256.649 238.458,256.425 239.970,256.270 240.432 C 256.116 240.894,255.883 242.082,255.752 243.071 C 255.622 244.061,255.415 245.573,255.292 246.431 C 255.170 247.289,254.966 248.962,254.840 250.150 C 254.713 251.338,254.489 252.849,254.340 253.509 C 254.192 254.169,253.976 255.519,253.861 256.509 C 253.612 258.639,253.252 260.921,253.016 261.865 C 252.807 262.702,253.298 263.707,253.917 263.707 C 254.163 263.707,254.426 263.869,254.502 264.066 C 254.577 264.263,254.737 264.364,254.856 264.291 C 254.975 264.217,255.137 264.325,255.216 264.531 C 255.295 264.736,255.445 264.852,255.549 264.787 C 255.653 264.723,255.806 264.847,255.889 265.063 C 255.972 265.279,256.097 265.399,256.166 265.330 C 256.337 265.159,257.145 265.837,259.813 268.386 C 263.143 271.569,266.317 276.455,266.729 279.033 C 266.817 279.578,266.989 280.024,267.111 280.024 C 267.234 280.024,267.265 280.137,267.179 280.276 C 267.093 280.415,267.188 280.874,267.388 281.297 C 268.147 282.896,268.104 291.320,267.333 292.091 C 267.207 292.217,267.161 292.469,267.231 292.651 C 267.301 292.833,267.227 292.981,267.067 292.981 C 266.906 292.981,266.837 293.143,266.913 293.341 C 266.989 293.539,266.935 293.701,266.793 293.701 C 266.651 293.701,266.597 293.863,266.673 294.061 C 266.749 294.259,266.720 294.421,266.609 294.421 C 266.498 294.421,266.407 294.673,266.407 294.982 C 266.407 295.610,265.667 297.326,265.279 297.597 C 265.141 297.694,265.111 297.775,265.215 297.777 C 265.409 297.781,264.500 299.518,263.643 300.780 C 263.374 301.176,262.766 301.858,262.291 302.297 C 261.816 302.735,261.582 303.014,261.771 302.916 C 261.960 302.818,261.825 303.117,261.471 303.581 C 260.702 304.589,260.684 304.822,261.301 305.689 C 261.561 306.054,261.707 306.419,261.626 306.500 C 261.545 306.581,261.656 306.715,261.872 306.798 C 262.088 306.881,262.205 307.046,262.131 307.165 C 262.057 307.284,262.165 307.446,262.371 307.525 C 262.577 307.604,262.692 307.754,262.627 307.858 C 262.563 307.963,262.678 308.113,262.884 308.192 C 263.090 308.270,263.191 308.444,263.108 308.577 C 263.026 308.709,263.056 308.818,263.175 308.818 C 263.449 308.818,263.947 309.899,263.947 310.492 C 263.947 310.740,264.102 311.098,264.291 311.287 C 265.911 312.908,265.630 324.335,263.944 325.377 C 263.835 325.444,263.710 325.658,263.667 325.851 C 263.623 326.045,263.451 326.350,263.285 326.528 C 263.119 326.707,263.044 326.953,263.119 327.074 C 263.194 327.195,263.141 327.295,263.002 327.295 C 262.862 327.295,262.747 327.514,262.747 327.782 C 262.747 328.050,262.586 328.331,262.389 328.407 C 262.192 328.483,262.091 328.642,262.164 328.761 C 262.238 328.880,262.130 329.042,261.924 329.121 C 261.719 329.200,261.604 329.350,261.668 329.455 C 261.733 329.560,260.896 330.548,259.807 331.650 C 257.534 333.949,256.578 334.790,256.845 334.253 C 256.954 334.033,256.891 334.055,256.683 334.309 C 256.495 334.538,256.274 334.658,256.191 334.575 C 256.108 334.492,255.972 334.601,255.889 334.817 C 255.806 335.033,255.641 335.150,255.522 335.076 C 255.403 335.003,255.241 335.111,255.162 335.316 C 255.083 335.522,254.933 335.637,254.829 335.573 C 254.725 335.508,254.577 335.617,254.502 335.814 C 254.426 336.011,254.154 336.173,253.897 336.173 C 253.640 336.173,253.393 336.254,253.349 336.353 C 253.274 336.523,251.271 337.181,248.399 337.979 C 246.709 338.448,241.389 338.455,239.664 337.989 C 236.494 337.134,233.584 335.990,232.693 335.248 C 232.463 335.056,232.274 334.964,232.274 335.044 C 232.274 335.124,231.992 334.929,231.648 334.610 C 231.304 334.291,230.953 334.052,230.868 334.079 C 230.783 334.106,230.444 333.884,230.114 333.586 C 229.784 333.288,229.003 332.602,228.377 332.061 C 227.752 331.521,227.310 330.966,227.395 330.829 C 227.481 330.688,227.433 330.651,227.284 330.743 C 227.051 330.887,226.426 330.107,226.403 329.644 C 226.399 329.551,226.179 329.300,225.915 329.087 C 225.651 328.873,225.597 328.769,225.795 328.854 C 226.035 328.958,226.016 328.896,225.739 328.668 C 225.510 328.481,225.390 328.259,225.473 328.176 C 225.556 328.093,225.447 327.958,225.231 327.875 C 225.015 327.792,224.898 327.627,224.971 327.509 C 225.044 327.391,224.983 327.295,224.835 327.295 C 224.687 327.295,224.633 327.187,224.715 327.055 C 224.797 326.923,224.743 326.815,224.595 326.815 C 224.448 326.815,224.394 326.707,224.475 326.575 C 224.557 326.443,224.503 326.335,224.355 326.335 C 224.208 326.335,224.154 326.227,224.235 326.095 C 224.317 325.963,224.281 325.855,224.155 325.855 C 223.780 325.855,223.115 323.901,223.115 322.799 C 223.115 322.234,223.028 321.826,222.921 321.892 C 222.686 322.037,222.644 321.528,222.684 319.028 C 222.701 317.979,222.640 316.374,222.548 315.461 L 222.381 313.802 221.029 313.967 C 220.285 314.057,218.002 314.235,215.957 314.362 C 212.368 314.585,210.106 314.741,202.400 315.298 C 194.439 315.873,185.160 316.426,179.904 316.639 C 178.221 316.708,176.845 316.845,176.845 316.945 C 176.845 317.046,175.796 317.155,174.514 317.190 C 173.232 317.224,172.071 317.325,171.934 317.414 C 171.798 317.503,170.174 317.661,168.326 317.766 C 162.989 318.068,156.119 318.413,152.669 318.553 C 150.921 318.624,149.490 318.768,149.490 318.873 C 149.490 318.979,148.007 319.088,146.195 319.116 C 144.383 319.144,142.845 319.252,142.776 319.356 C 142.708 319.460,141.207 319.569,139.442 319.598 C 137.677 319.627,135.970 319.751,135.647 319.873 C 135.325 319.996,134.035 320.096,132.781 320.096 C 130.057 320.096,130.064 320.091,129.330 322.624 C 129.025 323.675,128.614 324.724,128.418 324.955 C 128.221 325.186,128.126 325.375,128.206 325.375 C 128.286 325.375,128.090 325.656,127.772 326.001 C 127.453 326.345,127.215 326.704,127.243 326.800 C 127.308 327.020,125.046 329.334,124.765 329.334 C 124.650 329.334,124.381 329.550,124.168 329.814 C 123.954 330.078,123.850 330.132,123.935 329.934 C 124.021 329.736,123.921 329.784,123.713 330.040 C 123.505 330.296,123.335 330.431,123.335 330.340 C 123.335 330.249,123.115 330.394,122.847 330.663 C 122.578 330.931,122.254 331.087,122.127 331.008 C 122.000 330.930,121.896 330.954,121.896 331.063 C 121.896 331.367,119.995 332.121,118.656 332.347 C 117.996 332.459,116.800 332.664,115.998 332.803 C 114.826 333.006,114.307 332.983,113.358 332.690 C 112.709 332.489,111.416 332.224,110.485 332.101 C 108.677 331.862,106.318 330.804,105.459 329.846 C 105.195 329.552,105.033 329.430,105.099 329.574 C 105.165 329.718,105.018 329.616,104.772 329.345 C 104.526 329.075,104.245 328.854,104.148 328.854 C 103.333 328.854,100.547 324.986,100.923 324.378 C 101.024 324.213,100.989 324.166,100.835 324.261 C 100.512 324.461,99.603 322.106,99.367 320.456 C 99.120 318.730,99.263 315.253,99.589 315.052 C 99.738 314.959,99.852 314.814,99.841 314.730 C 99.745 314.016,99.879 313.353,100.180 313.052 C 100.378 312.854,100.540 312.522,100.540 312.315 C 100.540 312.107,100.648 311.938,100.780 311.938 C 100.912 311.938,101.020 311.733,101.020 311.483 C 101.020 311.234,101.197 310.961,101.414 310.878 C 101.631 310.795,101.743 310.661,101.663 310.582 C 101.090 310.008,105.577 305.708,107.068 305.402 C 107.238 305.367,107.503 305.177,107.658 304.979 C 107.813 304.782,108.015 304.696,108.107 304.788 C 108.200 304.880,108.430 304.802,108.618 304.614 C 110.514 302.718,117.777 302.948,122.067 305.040 C 123.674 305.823,127.415 309.045,127.415 309.646 C 127.415 309.810,127.646 310.149,127.928 310.401 C 128.514 310.922,130.054 313.987,130.054 314.631 C 130.054 315.105,132.591 315.082,138.343 314.556 C 139.800 314.422,142.607 314.304,144.581 314.292 C 146.555 314.281,148.278 314.189,148.410 314.088 C 148.542 313.988,149.568 313.841,150.690 313.761 C 151.812 313.682,154.349 313.504,156.329 313.367 C 158.308 313.229,161.386 313.009,163.167 312.878 C 164.949 312.747,168.324 312.581,170.668 312.509 C 173.163 312.433,174.873 312.287,174.793 312.158 C 174.713 312.028,176.093 311.938,178.164 311.938 C 180.442 311.938,181.620 311.853,181.524 311.698 C 181.427 311.542,182.705 311.458,185.181 311.458 C 187.274 311.458,189.089 311.360,189.214 311.240 C 189.442 311.022,190.357 310.942,197.139 310.548 C 199.129 310.432,200.872 310.266,201.013 310.179 C 201.154 310.092,203.005 310.004,205.126 309.984 C 207.247 309.963,208.925 309.854,208.856 309.742 C 208.787 309.630,209.519 309.524,210.484 309.507 C 211.448 309.491,212.454 309.443,212.717 309.401 C 214.184 309.170,220.744 308.806,221.356 308.921 C 221.792 309.004,221.951 308.977,221.760 308.854 C 221.558 308.724,221.979 308.594,222.924 308.495 C 224.579 308.322,225.709 307.862,225.608 307.402 C 225.198 305.534,234.630 298.120,236.502 298.838 C 236.697 298.913,236.802 298.885,236.734 298.775 C 236.666 298.665,237.389 298.376,238.341 298.133 C 240.382 297.613,246.804 297.330,246.191 297.788 C 245.912 297.996,246.029 298.024,246.711 297.911 C 248.236 297.660,253.869 299.288,253.869 299.981 C 253.869 300.090,254.085 300.180,254.349 300.180 C 254.613 300.180,254.829 300.288,254.829 300.420 C 254.829 300.552,255.045 300.660,255.309 300.660 C 255.573 300.660,255.789 300.759,255.789 300.879 C 255.789 301.401,257.028 300.687,257.956 299.631 C 259.077 298.355,261.308 294.773,261.308 294.249 C 261.308 294.056,261.426 293.986,261.585 294.084 C 261.738 294.179,261.797 294.151,261.717 294.022 C 261.560 293.767,262.101 291.697,262.279 291.870 C 262.339 291.928,262.411 291.482,262.439 290.878 C 262.467 290.275,262.575 289.718,262.679 289.641 C 263.314 289.172,262.702 282.977,261.745 280.179 C 260.681 277.067,257.988 272.892,256.131 271.476 C 255.681 271.133,255.375 270.754,255.449 270.633 C 255.524 270.513,255.495 270.444,255.386 270.480 C 255.057 270.589,251.712 268.346,251.897 268.140 C 251.992 268.035,251.954 268.015,251.814 268.095 C 251.673 268.175,251.104 268.084,250.550 267.893 C 249.477 267.524,248.562 267.631,246.461 268.375 C 245.520 268.707,236.357 268.746,158.693 268.746 L 71.976 268.746 70.361 267.967 C 68.255 266.951,65.885 264.681,65.537 263.347 C 65.295 262.421,64.758 259.326,63.943 254.158 C 63.729 252.799,63.622 251.342,63.705 250.919 C 63.802 250.427,63.778 250.264,63.638 250.465 C 63.356 250.873,62.766 247.589,62.755 245.554 C 62.751 244.742,62.683 244.181,62.604 244.309 C 62.398 244.643,61.835 241.130,61.809 239.351 C 61.797 238.521,61.722 237.947,61.643 238.075 C 61.563 238.203,61.430 237.841,61.348 237.270 C 61.265 236.700,60.975 234.732,60.702 232.897 C 60.429 231.063,60.271 229.227,60.351 228.818 C 60.439 228.369,60.415 228.193,60.289 228.373 C 60.090 228.658,59.921 227.839,59.262 223.395 C 58.417 217.704,58.291 216.572,58.426 215.885 C 58.519 215.416,58.495 215.235,58.367 215.420 C 58.230 215.616,58.058 215.064,57.878 213.861 C 56.984 207.877,56.859 206.839,56.963 206.264 C 57.027 205.915,56.996 205.680,56.895 205.743 C 56.794 205.805,56.580 204.970,56.419 203.888 C 55.795 199.691,55.539 197.925,54.951 193.761 C 54.802 192.705,54.584 191.194,54.466 190.402 C 54.349 189.610,54.134 188.044,53.989 186.923 C 53.845 185.801,53.628 184.235,53.509 183.443 C 53.390 182.651,53.174 181.086,53.029 179.964 C 52.885 178.842,52.664 177.264,52.538 176.457 C 52.412 175.650,52.310 174.658,52.310 174.252 C 52.310 173.846,52.190 173.440,52.044 173.349 C 51.858 173.235,51.876 173.115,52.104 172.953 C 52.349 172.778,52.322 172.755,51.996 172.861 C 51.118 173.145,49.331 172.516,48.122 171.497 C 47.469 170.947,47.027 170.646,47.140 170.828 C 47.285 171.063,47.256 171.105,47.043 170.974 C 46.609 170.705,46.071 169.305,46.071 168.442 C 46.071 167.508,46.720 166.215,47.078 166.436 C 47.226 166.527,47.278 166.493,47.195 166.359 C 47.113 166.226,47.336 165.858,47.691 165.542 C 48.045 165.226,48.231 165.134,48.103 165.338 C 47.975 165.542,48.105 165.443,48.392 165.118 C 49.247 164.146,47.399 164.163,157.873 164.145 L 264.275 164.127 282.412 146.005 L 300.549 127.882 318.089 127.891 C 333.179 127.899,335.670 127.851,335.920 127.550 C 336.125 127.303,336.187 126.249,336.132 123.971 L 336.053 120.742 343.731 120.849 C 347.954 120.907,352.028 121.073,352.784 121.217 M156.448 182.691 C 156.449 182.806,156.233 182.843,155.968 182.774 C 155.704 182.705,155.545 182.740,155.614 182.852 C 155.683 182.964,155.333 183.241,154.835 183.468 C 153.048 184.281,151.662 186.083,151.255 188.118 C 151.176 188.512,151.043 188.792,150.961 188.741 C 150.690 188.574,150.902 217.904,151.181 219.196 C 151.356 220.006,151.416 225.366,151.365 235.670 C 151.324 244.071,151.355 250.904,151.434 250.855 C 151.514 250.806,151.648 251.738,151.732 252.926 C 151.951 256.006,152.864 257.680,154.972 258.865 C 156.015 259.451,161.022 260.187,161.284 259.793 C 161.369 259.664,161.618 259.627,161.836 259.710 C 162.059 259.796,162.171 259.763,162.092 259.635 C 162.015 259.510,162.414 259.195,162.979 258.934 C 163.545 258.674,164.590 257.867,165.302 257.142 L 166.597 255.822 166.782 253.593 C 166.884 252.366,167.082 251.325,167.222 251.278 C 167.402 251.218,167.433 246.675,167.328 236.034 C 167.176 220.779,167.445 204.611,167.747 210.798 C 167.824 212.382,167.878 207.900,167.867 200.840 C 167.856 193.779,167.776 188.488,167.690 189.082 C 167.550 190.054,167.538 190.013,167.570 188.681 C 167.590 187.867,167.561 187.246,167.506 187.302 C 167.351 187.458,166.527 186.644,166.527 186.334 C 166.527 185.989,164.797 184.283,164.446 184.283 C 164.303 184.283,164.050 184.119,163.884 183.919 C 163.717 183.718,163.191 183.373,162.714 183.151 C 162.238 182.930,161.794 182.689,161.728 182.616 C 161.528 182.395,156.448 182.468,156.448 182.691 M198.200 182.680 C 198.200 182.788,197.982 182.806,197.714 182.722 C 197.381 182.616,197.249 182.667,197.295 182.885 C 197.334 183.077,197.150 183.196,196.833 183.186 C 196.542 183.176,196.348 183.238,196.401 183.324 C 196.454 183.409,195.741 184.227,194.816 185.141 C 193.892 186.055,192.958 187.181,192.741 187.642 C 192.524 188.104,192.287 188.536,192.214 188.602 C 192.141 188.668,192.062 190.504,192.038 192.681 C 191.992 196.800,191.684 203.433,191.281 208.998 C 191.152 210.780,191.019 212.723,190.986 213.317 L 190.926 214.397 190.777 213.197 C 190.694 212.537,190.622 215.237,190.617 219.196 C 190.612 223.155,190.489 228.014,190.344 229.994 C 190.199 231.974,190.055 233.971,190.025 234.433 C 189.972 235.240,189.964 235.231,189.806 234.193 C 189.715 233.599,189.651 236.221,189.662 240.019 C 189.677 245.107,189.607 246.971,189.397 247.102 C 189.077 247.302,189.062 255.307,189.382 255.308 C 189.481 255.309,189.562 255.447,189.562 255.615 C 189.562 255.995,192.640 259.026,193.237 259.233 C 193.478 259.317,193.598 259.504,193.506 259.652 C 193.395 259.833,193.506 259.867,193.851 259.758 C 194.132 259.669,194.361 259.684,194.361 259.792 C 194.361 259.900,195.333 259.988,196.521 259.988 C 197.708 259.988,198.680 259.894,198.680 259.780 C 198.680 259.666,198.896 259.629,199.160 259.698 C 199.425 259.767,199.584 259.732,199.515 259.620 C 199.446 259.508,199.796 259.231,200.294 259.005 C 201.274 258.560,203.959 256.099,203.959 255.646 C 203.959 255.493,204.110 255.242,204.295 255.089 C 204.520 254.902,204.658 254.139,204.715 252.771 C 204.762 251.629,204.916 250.657,205.066 250.561 C 205.245 250.446,205.331 249.083,205.326 246.431 C 205.317 241.562,205.666 237.264,206.082 237.125 C 206.305 237.050,206.339 236.526,206.218 235.035 C 206.047 232.920,206.279 230.077,206.584 230.570 C 206.683 230.730,206.768 228.831,206.771 226.349 C 206.782 219.580,207.690 207.918,208.048 209.958 C 208.130 210.420,208.193 208.422,208.188 205.519 C 208.184 202.615,208.305 199.106,208.456 197.720 C 208.607 196.335,208.752 194.877,208.776 194.481 L 208.821 193.761 209.015 194.601 C 209.128 195.089,209.158 194.085,209.087 192.202 C 208.900 187.226,207.281 184.203,204.199 183.078 C 203.225 182.722,198.199 182.389,198.200 182.680 M72.109 182.807 C 72.181 182.879,71.400 183.783,70.373 184.816 L 68.506 186.693 68.563 189.747 C 68.703 197.222,68.743 198.156,68.919 198.048 C 69.022 197.984,69.113 198.073,69.120 198.246 C 69.128 198.419,69.241 199.100,69.371 199.760 C 69.501 200.420,69.712 201.932,69.840 203.119 C 70.133 205.829,70.432 208.268,70.812 211.038 C 70.974 212.226,71.110 214.352,71.112 215.763 C 71.114 217.174,71.197 218.279,71.296 218.218 C 71.394 218.157,71.545 218.622,71.630 219.252 C 71.715 219.881,71.898 220.766,72.038 221.218 C 72.184 221.695,72.231 222.883,72.149 224.045 C 72.071 225.152,72.101 225.992,72.215 225.921 C 72.536 225.723,72.760 227.544,72.571 228.808 C 72.465 229.514,72.488 229.889,72.631 229.800 C 73.066 229.531,73.743 233.358,73.598 235.273 C 73.504 236.516,73.548 237.074,73.745 237.140 C 73.928 237.201,74.020 237.869,74.011 239.059 C 74.003 240.063,74.065 240.842,74.148 240.790 C 74.306 240.692,74.955 243.504,75.256 245.591 C 75.351 246.251,75.437 247.725,75.447 248.867 C 75.457 250.010,75.539 250.898,75.629 250.842 C 75.720 250.786,75.862 251.256,75.946 251.885 C 76.452 255.701,77.713 257.728,80.332 258.934 C 80.897 259.195,81.293 259.515,81.212 259.647 C 81.118 259.799,81.305 259.827,81.719 259.723 C 82.138 259.618,82.321 259.646,82.225 259.801 C 82.038 260.103,85.178 259.937,86.383 259.580 C 88.426 258.975,90.702 257.396,90.702 256.582 C 90.702 256.412,90.897 256.151,91.134 256.003 C 91.522 255.761,91.541 255.578,91.320 254.261 C 91.184 253.452,91.083 251.062,91.097 248.950 C 91.110 246.839,91.046 245.318,90.954 245.572 C 90.640 246.437,90.117 242.327,90.112 238.953 C 90.109 237.151,90.032 235.722,89.940 235.779 C 89.651 235.958,89.437 233.745,89.602 232.282 C 89.720 231.238,89.682 230.853,89.451 230.776 C 89.226 230.700,89.149 230.060,89.167 228.413 C 89.182 227.005,89.092 226.090,88.927 225.982 C 88.761 225.874,88.673 224.957,88.691 223.527 C 88.708 222.272,88.633 221.299,88.527 221.365 C 88.225 221.552,87.989 219.439,88.175 218.203 C 88.287 217.452,88.251 217.033,88.063 216.917 C 87.625 216.646,87.240 213.701,87.242 210.635 C 87.242 209.093,87.164 207.880,87.068 207.940 C 86.780 208.118,86.553 205.940,86.725 204.645 C 86.827 203.876,86.799 203.490,86.649 203.583 C 86.514 203.666,86.347 203.240,86.259 202.584 C 86.174 201.955,85.990 201.068,85.850 200.614 C 85.696 200.115,85.652 198.789,85.739 197.257 C 85.819 195.845,85.793 194.871,85.679 195.054 C 85.397 195.511,85.093 193.160,85.307 192.181 C 85.418 191.678,85.390 191.474,85.224 191.576 C 85.070 191.671,84.914 191.290,84.819 190.587 C 84.122 185.424,80.552 182.536,74.980 182.627 C 73.329 182.653,72.037 182.734,72.109 182.807 M114.577 182.894 C 114.181 183.032,113.687 183.294,113.478 183.475 C 113.270 183.655,112.996 183.803,112.870 183.803 C 112.743 183.803,112.143 184.316,111.537 184.943 C 109.951 186.582,109.723 187.543,109.587 193.161 C 109.524 195.735,109.547 197.463,109.639 197.001 C 109.903 195.660,110.214 200.133,110.060 203.062 C 109.984 204.519,110.009 205.177,110.123 204.679 L 110.315 203.839 110.363 204.559 C 110.390 204.955,110.532 206.521,110.679 208.038 C 110.826 209.556,110.948 212.957,110.950 215.597 C 110.952 218.236,111.017 220.018,111.094 219.556 C 111.334 218.128,111.621 222.167,111.484 225.053 C 111.418 226.451,111.443 227.217,111.540 226.755 C 111.891 225.072,112.794 235.570,112.860 242.112 C 112.879 244.025,112.999 245.665,113.125 245.755 C 113.252 245.846,113.442 247.034,113.548 248.395 C 114.120 255.738,114.164 255.908,115.945 257.620 C 116.951 258.587,117.865 258.986,120.456 259.591 C 121.875 259.922,123.777 260.088,123.865 259.889 C 123.904 259.802,124.529 259.443,125.255 259.091 C 128.524 257.507,130.469 253.683,129.208 251.317 C 128.920 250.777,128.848 249.831,128.873 246.911 C 128.893 244.481,128.803 242.942,128.613 242.472 C 128.399 241.942,128.348 239.785,128.420 234.313 C 128.473 230.222,128.453 227.307,128.375 227.834 C 128.105 229.655,127.836 224.087,127.989 219.859 C 128.081 217.312,128.052 216.013,127.911 216.317 C 127.789 216.581,127.671 216.689,127.650 216.557 C 127.408 215.028,127.097 207.337,127.078 202.400 C 127.065 198.968,126.989 196.593,126.909 197.121 L 126.763 198.080 126.707 197.241 C 126.676 196.779,126.560 194.997,126.449 193.281 C 126.108 188.007,125.912 187.385,123.936 185.290 C 121.689 182.907,117.557 181.849,114.577 182.894 M239.600 182.986 C 239.076 183.178,238.485 183.272,238.287 183.196 C 238.089 183.120,238.008 183.139,238.107 183.238 C 238.206 183.337,237.358 184.353,236.222 185.494 C 234.182 187.543,234.153 187.589,233.939 189.106 C 233.608 191.459,233.098 193.563,232.957 193.161 C 232.887 192.963,232.829 194.097,232.829 195.681 C 232.827 199.971,231.964 206.737,231.503 206.081 C 231.356 205.872,231.330 206.215,231.428 207.054 C 231.622 208.707,231.337 211.258,231.037 210.558 C 230.912 210.265,230.886 210.703,230.970 211.681 C 231.121 213.430,230.881 215.702,230.595 215.238 C 230.497 215.080,230.420 216.338,230.423 218.033 C 230.426 219.729,230.299 222.304,230.139 223.755 C 229.852 226.363,229.653 228.318,229.173 233.233 C 229.038 234.619,228.825 236.401,228.701 237.193 C 228.577 237.984,228.464 238.848,228.451 239.112 C 228.431 239.516,228.388 239.535,228.179 239.232 C 228.005 238.979,227.978 239.415,228.089 240.705 C 228.261 242.713,228.049 244.598,227.676 244.367 C 227.525 244.274,227.500 244.825,227.607 245.911 C 227.788 247.746,227.573 249.879,227.229 249.667 C 227.105 249.590,227.073 250.922,227.153 252.842 L 227.292 256.149 228.733 257.626 C 229.783 258.701,230.461 259.183,231.224 259.397 C 231.801 259.558,232.274 259.757,232.274 259.839 C 232.274 259.921,233.030 259.994,233.953 260.001 C 234.877 260.009,235.633 259.940,235.633 259.848 C 235.633 259.755,235.930 259.607,236.293 259.518 C 238.216 259.046,241.392 256.936,241.392 256.129 C 241.392 255.974,241.551 255.716,241.745 255.554 C 241.940 255.393,242.168 254.895,242.252 254.447 C 242.336 253.994,242.511 253.699,242.644 253.782 C 242.798 253.877,242.826 253.587,242.721 252.968 C 242.528 251.824,242.783 250.212,243.124 250.422 C 243.278 250.518,243.306 250.228,243.201 249.609 C 243.029 248.586,243.251 246.845,243.532 247.019 C 243.625 247.076,243.694 246.316,243.686 245.329 C 243.678 244.340,243.783 243.458,243.921 243.363 C 244.058 243.269,244.166 242.405,244.161 241.443 C 244.154 240.254,244.251 239.633,244.465 239.501 C 244.670 239.374,244.723 239.084,244.618 238.666 C 244.398 237.787,244.711 235.819,245.039 236.022 C 245.216 236.132,245.243 235.830,245.126 235.047 C 244.922 233.692,245.164 231.964,245.525 232.187 C 245.695 232.292,245.721 231.976,245.606 231.208 C 245.426 230.008,245.634 228.119,245.927 228.299 C 246.022 228.358,246.102 227.252,246.105 225.841 C 246.107 224.430,246.242 222.304,246.405 221.116 C 246.710 218.887,246.941 217.075,247.368 213.557 C 247.504 212.436,247.720 210.978,247.848 210.318 C 247.977 209.658,248.088 208.977,248.096 208.804 C 248.104 208.631,248.233 208.566,248.383 208.658 C 248.579 208.780,248.609 208.518,248.488 207.713 C 248.279 206.320,248.550 204.245,248.879 204.715 C 249.027 204.925,249.055 204.524,248.960 203.573 C 248.805 202.019,249.027 199.902,249.299 200.342 C 249.388 200.485,249.464 199.441,249.468 198.022 C 249.472 196.602,249.613 194.361,249.782 193.041 C 250.120 190.402,250.275 186.171,250.029 186.324 C 249.943 186.377,249.233 185.770,248.452 184.975 C 246.158 182.644,242.674 181.861,239.600 182.986 M167.181 249.970 C 167.130 250.465,167.087 250.060,167.087 249.070 C 167.087 248.080,167.130 247.675,167.181 248.170 C 167.233 248.665,167.233 249.475,167.181 249.970 " stroke="none" fill="#2c2c2c" fill-rule="evenodd"></path><path id="path2" d="M212.060 20.326 C 212.359 20.383,212.791 20.381,213.020 20.321 C 213.250 20.261,213.005 20.214,212.478 20.216 C 211.950 20.219,211.762 20.268,212.060 20.326 M319.136 66.347 C 319.584 66.809,320.004 67.187,320.070 67.187 C 320.136 67.187,319.824 66.809,319.376 66.347 C 318.928 65.885,318.508 65.507,318.442 65.507 C 318.376 65.507,318.688 65.885,319.136 66.347 M74.622 72.166 L 70.666 76.185 74.685 72.228 C 78.419 68.553,78.813 68.146,78.642 68.146 C 78.607 68.146,76.798 69.955,74.622 72.166 M322.735 69.706 C 323.586 70.564,324.335 71.266,324.401 71.266 C 324.467 71.266,323.826 70.564,322.975 69.706 C 322.125 68.848,321.376 68.146,321.310 68.146 C 321.244 68.146,321.885 68.848,322.735 69.706 M327.654 74.625 C 328.438 75.417,329.133 76.065,329.199 76.065 C 329.265 76.065,328.678 75.417,327.894 74.625 C 327.111 73.833,326.416 73.185,326.350 73.185 C 326.284 73.185,326.871 73.833,327.654 74.625 M331.014 78.224 C 331.529 78.752,332.005 79.184,332.071 79.184 C 332.137 79.184,331.769 78.752,331.254 78.224 C 330.738 77.696,330.263 77.265,330.197 77.265 C 330.131 77.265,330.498 77.696,331.014 78.224 M66.812 80.444 L 66.107 81.224 66.887 80.519 C 67.614 79.862,67.777 79.664,67.591 79.664 C 67.550 79.664,67.199 80.015,66.812 80.444 M347.880 121.114 C 348.710 121.161,350.006 121.160,350.759 121.113 C 351.513 121.065,350.834 121.027,349.250 121.027 C 347.666 121.028,347.050 121.067,347.880 121.114 M336.713 138.624 C 337.076 138.679,337.669 138.679,338.032 138.624 C 338.395 138.569,338.098 138.524,337.373 138.524 C 336.647 138.524,336.350 138.569,336.713 138.624 M348.585 138.625 C 349.011 138.678,349.767 138.679,350.265 138.627 C 350.762 138.575,350.414 138.532,349.490 138.531 C 348.566 138.530,348.159 138.572,348.585 138.625 M64.847 164.307 C 71.941 164.342,83.548 164.342,90.642 164.307 C 97.735 164.272,91.932 164.243,77.744 164.243 C 63.557 164.243,57.753 164.272,64.847 164.307 M74.925 182.295 C 75.288 182.350,75.882 182.350,76.245 182.295 C 76.608 182.240,76.311 182.195,75.585 182.195 C 74.859 182.195,74.562 182.240,74.925 182.295 M116.680 182.296 C 117.045 182.351,117.585 182.349,117.880 182.292 C 118.175 182.236,117.876 182.190,117.217 182.192 C 116.557 182.194,116.315 182.241,116.680 182.296 M158.548 182.293 C 158.845 182.350,159.331 182.350,159.628 182.293 C 159.925 182.236,159.682 182.189,159.088 182.189 C 158.494 182.189,158.251 182.236,158.548 182.293 M200.423 182.296 C 200.788 182.351,201.328 182.349,201.623 182.292 C 201.918 182.236,201.620 182.190,200.960 182.192 C 200.300 182.194,200.058 182.241,200.423 182.296 M242.294 182.293 C 242.593 182.351,243.025 182.348,243.254 182.288 C 243.484 182.228,243.239 182.181,242.711 182.184 C 242.184 182.187,241.996 182.236,242.294 182.293 M70.294 184.104 C 69.610 184.707,68.734 185.723,68.899 185.723 C 68.958 185.723,69.483 185.237,70.066 184.643 C 71.191 183.497,71.314 183.207,70.294 184.104 M247.870 183.878 C 247.870 183.920,248.221 184.271,248.650 184.658 L 249.430 185.363 248.725 184.583 C 248.068 183.856,247.870 183.693,247.870 183.878 M236.097 184.827 C 235.627 185.254,235.037 185.873,234.786 186.203 C 234.534 186.533,234.946 186.212,235.701 185.491 C 236.953 184.294,237.187 184.036,237.013 184.047 C 236.980 184.049,236.568 184.400,236.097 184.827 M194.226 185.063 L 193.521 185.843 194.301 185.138 C 195.028 184.481,195.191 184.283,195.006 184.283 C 194.965 184.283,194.614 184.634,194.226 185.063 M82.064 184.598 C 82.064 184.639,82.415 184.990,82.843 185.378 L 83.623 186.083 82.919 185.303 C 82.262 184.576,82.064 184.413,82.064 184.598 M67.962 188.362 C 67.962 188.824,68.011 189.013,68.072 188.782 C 68.132 188.551,68.132 188.173,68.072 187.942 C 68.011 187.711,67.962 187.900,67.962 188.362 M191.809 194.001 C 191.810 195.321,191.850 195.830,191.899 195.133 C 191.947 194.436,191.947 193.356,191.898 192.733 C 191.848 192.111,191.809 192.681,191.809 194.001 M68.442 193.881 C 68.442 194.343,68.491 194.532,68.552 194.301 C 68.612 194.070,68.612 193.692,68.552 193.461 C 68.491 193.230,68.442 193.419,68.442 193.881 M249.606 196.281 C 249.606 196.743,249.655 196.932,249.715 196.701 C 249.776 196.470,249.776 196.092,249.715 195.861 C 249.655 195.630,249.606 195.819,249.606 196.281 M232.574 197.361 C 232.577 197.888,232.626 198.076,232.683 197.778 C 232.741 197.479,232.738 197.047,232.678 196.818 C 232.618 196.588,232.571 196.833,232.574 197.361 M85.963 199.280 C 85.966 199.808,86.015 199.996,86.073 199.697 C 86.130 199.399,86.128 198.967,86.068 198.737 C 86.008 198.508,85.961 198.752,85.963 199.280 M21.200 202.040 C 21.200 203.161,21.241 203.620,21.291 203.059 C 21.342 202.499,21.342 201.581,21.291 201.020 C 21.241 200.459,21.200 200.918,21.200 202.040 M208.357 202.160 C 208.358 203.083,208.402 203.432,208.453 202.934 C 208.505 202.436,208.505 201.680,208.452 201.254 C 208.399 200.828,208.356 201.236,208.357 202.160 M232.094 201.680 C 232.097 202.208,232.146 202.395,232.203 202.097 C 232.261 201.798,232.259 201.366,232.198 201.137 C 232.138 200.908,232.091 201.152,232.094 201.680 M69.407 202.400 C 69.409 202.927,69.458 203.115,69.516 202.817 C 69.573 202.518,69.571 202.086,69.511 201.857 C 69.451 201.627,69.404 201.872,69.407 202.400 M191.324 203.839 C 191.325 204.895,191.367 205.297,191.418 204.733 C 191.468 204.168,191.468 203.305,191.416 202.813 C 191.365 202.322,191.323 202.783,191.324 203.839 M127.255 206.839 C 127.255 207.828,127.298 208.233,127.349 207.738 C 127.401 207.244,127.401 206.434,127.349 205.939 C 127.298 205.444,127.255 205.849,127.255 206.839 M69.882 206.599 C 69.882 207.061,69.931 207.250,69.991 207.019 C 70.052 206.788,70.052 206.410,69.991 206.179 C 69.931 205.948,69.882 206.137,69.882 206.599 M70.362 210.438 C 70.362 210.900,70.411 211.089,70.471 210.858 C 70.532 210.627,70.532 210.249,70.471 210.018 C 70.411 209.787,70.362 209.976,70.362 210.438 M110.690 212.118 C 110.690 212.843,110.735 213.140,110.790 212.777 C 110.845 212.415,110.845 211.821,110.790 211.458 C 110.735 211.095,110.690 211.392,110.690 212.118 M87.403 212.238 C 87.406 212.765,87.455 212.953,87.512 212.655 C 87.570 212.356,87.567 211.924,87.507 211.695 C 87.447 211.465,87.400 211.710,87.403 212.238 M57.644 212.358 C 57.644 212.819,57.694 213.008,57.754 212.777 C 57.814 212.546,57.814 212.169,57.754 211.938 C 57.694 211.707,57.644 211.896,57.644 212.358 M247.686 212.837 C 247.686 213.299,247.736 213.488,247.796 213.257 C 247.856 213.026,247.856 212.648,247.796 212.418 C 247.736 212.187,247.686 212.376,247.686 212.837 M70.842 214.277 C 70.842 214.739,70.891 214.928,70.951 214.697 C 71.012 214.466,71.012 214.088,70.951 213.857 C 70.891 213.626,70.842 213.815,70.842 214.277 M167.579 217.397 C 167.579 219.046,167.617 219.721,167.664 218.896 C 167.711 218.071,167.711 216.722,167.664 215.897 C 167.617 215.072,167.579 215.747,167.579 217.397 M207.397 216.557 C 207.398 217.481,207.442 217.829,207.494 217.331 C 207.546 216.833,207.545 216.077,207.492 215.652 C 207.439 215.226,207.396 215.633,207.397 216.557 M247.206 216.677 C 247.206 217.139,247.256 217.328,247.316 217.097 C 247.376 216.866,247.376 216.488,247.316 216.257 C 247.256 216.026,247.206 216.215,247.206 216.677 M230.174 219.916 C 230.177 220.444,230.226 220.632,230.284 220.333 C 230.341 220.035,230.339 219.603,230.279 219.373 C 230.219 219.144,230.172 219.388,230.174 219.916 M150.863 219.976 C 150.810 220.075,150.838 224.043,150.925 228.794 L 151.084 237.433 151.127 228.614 C 151.166 220.487,151.135 219.463,150.863 219.976 M246.726 220.516 C 246.726 220.978,246.776 221.167,246.836 220.936 C 246.896 220.705,246.896 220.327,246.836 220.096 C 246.776 219.865,246.726 220.054,246.726 220.516 M167.552 221.476 C 167.552 222.070,167.599 222.313,167.656 222.016 C 167.713 221.719,167.713 221.233,167.656 220.936 C 167.599 220.639,167.552 220.882,167.552 221.476 M190.234 223.815 C 190.187 224.838,190.233 225.777,190.335 225.903 C 190.438 226.028,190.522 225.191,190.522 224.043 C 190.522 221.454,190.349 221.317,190.234 223.815 M206.915 223.635 C 206.915 224.493,206.959 224.844,207.012 224.415 C 207.065 223.986,207.065 223.284,207.012 222.855 C 206.959 222.427,206.915 222.777,206.915 223.635 M229.699 224.595 C 229.699 225.189,229.746 225.432,229.803 225.135 C 229.861 224.838,229.861 224.352,229.803 224.055 C 229.746 223.758,229.699 224.001,229.699 224.595 M246.246 224.355 C 246.246 224.817,246.296 225.006,246.356 224.775 C 246.417 224.544,246.417 224.166,246.356 223.935 C 246.296 223.704,246.246 223.893,246.246 224.355 M229.220 229.394 C 229.220 229.988,229.266 230.231,229.324 229.934 C 229.381 229.637,229.381 229.151,229.324 228.854 C 229.266 228.557,229.220 228.800,229.220 229.394 M112.136 233.353 C 112.137 234.277,112.181 234.626,112.233 234.128 C 112.285 233.630,112.284 232.874,112.231 232.448 C 112.178 232.022,112.135 232.430,112.136 233.353 M73.241 233.473 C 73.241 233.935,73.290 234.124,73.351 233.893 C 73.411 233.662,73.411 233.284,73.351 233.053 C 73.290 232.822,73.241 233.011,73.241 233.473 M228.740 234.193 C 228.740 234.787,228.786 235.030,228.844 234.733 C 228.901 234.436,228.901 233.950,228.844 233.653 C 228.786 233.356,228.740 233.599,228.740 234.193 M128.703 239.472 C 128.703 240.858,128.743 241.425,128.791 240.732 C 128.840 240.039,128.840 238.905,128.791 238.212 C 128.743 237.519,128.703 238.086,128.703 239.472 M112.606 240.072 C 112.608 240.732,112.655 240.973,112.710 240.609 C 112.765 240.244,112.763 239.704,112.706 239.409 C 112.649 239.114,112.604 239.412,112.606 240.072 M90.294 240.672 C 90.294 241.398,90.339 241.695,90.394 241.332 C 90.449 240.969,90.449 240.375,90.394 240.012 C 90.339 239.649,90.294 239.946,90.294 240.672 M205.464 243.791 C 205.464 244.385,205.511 244.628,205.568 244.331 C 205.625 244.034,205.625 243.548,205.568 243.251 C 205.511 242.954,205.464 243.197,205.464 243.791 M189.391 244.871 C 189.393 245.531,189.439 245.772,189.494 245.408 C 189.549 245.043,189.548 244.503,189.491 244.208 C 189.434 243.913,189.389 244.211,189.391 244.871 M91.254 251.470 C 91.254 252.196,91.299 252.493,91.354 252.130 C 91.409 251.767,91.409 251.173,91.354 250.810 C 91.299 250.447,91.254 250.744,91.254 251.470 M113.569 252.669 C 113.569 253.395,113.614 253.692,113.669 253.329 C 113.724 252.966,113.724 252.373,113.669 252.010 C 113.614 251.647,113.569 251.944,113.569 252.669 M77.025 256.824 C 77.025 256.865,77.376 257.216,77.804 257.604 L 78.584 258.308 77.880 257.528 C 77.223 256.802,77.025 256.638,77.025 256.824 M190.762 257.828 C 191.210 258.290,191.630 258.668,191.696 258.668 C 191.762 258.668,191.449 258.290,191.002 257.828 C 190.554 257.367,190.134 256.989,190.068 256.989 C 190.002 256.989,190.314 257.367,190.762 257.828 M72.525 268.672 C 72.756 268.732,73.134 268.732,73.365 268.672 C 73.596 268.611,73.407 268.562,72.945 268.562 C 72.484 268.562,72.295 268.611,72.525 268.672 M241.332 297.710 C 241.629 297.767,242.115 297.767,242.412 297.710 C 242.708 297.653,242.466 297.606,241.872 297.606 C 241.278 297.606,241.035 297.653,241.332 297.710 M112.720 303.469 C 113.019 303.526,113.451 303.524,113.680 303.464 C 113.909 303.404,113.665 303.357,113.137 303.360 C 112.609 303.363,112.422 303.412,112.720 303.469 M115.840 303.469 C 116.138 303.526,116.570 303.524,116.799 303.464 C 117.029 303.404,116.785 303.357,116.257 303.360 C 115.729 303.363,115.541 303.412,115.840 303.469 M215.297 309.230 C 215.660 309.285,216.254 309.285,216.617 309.230 C 216.980 309.175,216.683 309.130,215.957 309.130 C 215.231 309.130,214.934 309.175,215.297 309.230 M201.740 310.187 C 202.037 310.245,202.522 310.245,202.819 310.187 C 203.116 310.130,202.873 310.083,202.280 310.083 C 201.686 310.083,201.443 310.130,201.740 310.187 M195.024 310.668 C 195.322 310.725,195.754 310.723,195.984 310.663 C 196.213 310.603,195.969 310.556,195.441 310.558 C 194.913 310.561,194.725 310.610,195.024 310.668 M167.666 312.587 C 167.963 312.644,168.449 312.644,168.746 312.587 C 169.043 312.530,168.800 312.483,168.206 312.483 C 167.612 312.483,167.370 312.530,167.666 312.587 M160.948 313.067 C 161.245 313.124,161.731 313.124,162.028 313.067 C 162.325 313.010,162.082 312.963,161.488 312.963 C 160.894 312.963,160.651 313.010,160.948 313.067 M154.232 313.547 C 154.530 313.604,154.962 313.602,155.192 313.542 C 155.421 313.482,155.177 313.435,154.649 313.438 C 154.121 313.440,153.933 313.490,154.232 313.547 M217.576 314.267 C 217.873 314.324,218.359 314.324,218.656 314.267 C 218.953 314.209,218.710 314.163,218.116 314.163 C 217.522 314.163,217.280 314.209,217.576 314.267 M140.435 314.509 C 140.800 314.564,141.340 314.563,141.635 314.506 C 141.930 314.449,141.632 314.404,140.972 314.406 C 140.312 314.408,140.070 314.454,140.435 314.509 M210.738 314.742 C 210.969 314.803,211.347 314.803,211.578 314.742 C 211.809 314.682,211.620 314.633,211.158 314.633 C 210.696 314.633,210.507 314.682,210.738 314.742 M132.753 314.992 C 133.248 315.044,134.058 315.044,134.553 314.992 C 135.048 314.940,134.643 314.898,133.653 314.898 C 132.663 314.898,132.259 314.940,132.753 314.992 M204.019 315.222 C 204.250 315.283,204.628 315.283,204.859 315.222 C 205.090 315.162,204.901 315.113,204.439 315.113 C 203.977 315.113,203.788 315.162,204.019 315.222 M197.301 315.702 C 197.531 315.763,197.909 315.763,198.140 315.702 C 198.371 315.642,198.182 315.593,197.720 315.593 C 197.259 315.593,197.070 315.642,197.301 315.702 M169.946 317.622 C 170.177 317.682,170.555 317.682,170.786 317.622 C 171.017 317.562,170.828 317.512,170.366 317.512 C 169.904 317.512,169.715 317.562,169.946 317.622 M163.227 318.102 C 163.458 318.162,163.836 318.162,164.067 318.102 C 164.298 318.041,164.109 317.992,163.647 317.992 C 163.185 317.992,162.996 318.041,163.227 318.102 M69.816 327.594 C 70.810 328.654,71.026 328.844,71.026 328.664 C 71.026 328.626,70.513 328.113,69.886 327.524 L 68.746 326.455 69.816 327.594 M74.865 332.933 C 76.511 334.583,77.911 335.933,77.977 335.933 C 78.043 335.933,76.751 334.583,75.105 332.933 C 73.459 331.284,72.059 329.934,71.993 329.934 C 71.927 329.934,73.219 331.284,74.865 332.933 M80.264 338.092 C 80.779 338.620,81.255 339.052,81.321 339.052 C 81.387 339.052,81.019 338.620,80.504 338.092 C 79.988 337.564,79.513 337.133,79.447 337.133 C 79.381 337.133,79.748 337.564,80.264 338.092 " stroke="none" fill="#9ea0a0" fill-rule="evenodd"></path><path id="path3" d="M210.141 20.326 C 210.439 20.383,210.871 20.381,211.101 20.321 C 211.330 20.261,211.086 20.214,210.558 20.216 C 210.030 20.219,209.842 20.268,210.141 20.326 M337.972 120.947 C 338.632 121.050,339.658 121.131,340.252 121.127 L 341.332 121.121 340.372 120.922 C 339.844 120.813,338.818 120.732,338.092 120.742 L 336.773 120.760 337.972 120.947 M281.924 146.494 C 272.346 156.060,264.572 163.887,264.648 163.887 C 264.725 163.887,272.616 156.059,282.184 146.491 C 291.751 136.923,299.525 129.096,299.459 129.097 C 299.394 129.099,291.503 136.927,281.924 146.494 M286.992 149.121 C 278.090 158.023,270.856 165.352,270.916 165.406 C 270.976 165.460,278.321 158.176,287.237 149.219 C 296.153 140.262,303.387 132.933,303.313 132.933 C 303.239 132.933,295.894 140.218,286.992 149.121 M126.774 164.307 C 139.553 164.341,160.393 164.341,173.084 164.307 C 185.776 164.273,175.321 164.245,149.850 164.245 C 124.379 164.245,113.995 164.273,126.774 164.307 M72.705 182.543 C 72.705 182.642,73.487 182.694,74.445 182.658 C 77.433 182.545,77.724 182.442,75.165 182.402 C 73.812 182.381,72.705 182.445,72.705 182.543 M115.094 182.543 C 115.033 182.642,116.150 182.723,117.576 182.723 C 119.003 182.723,120.120 182.642,120.059 182.543 C 119.998 182.445,118.881 182.364,117.576 182.364 C 116.272 182.364,115.155 182.445,115.094 182.543 M157.708 182.540 C 158.335 182.589,159.361 182.589,159.988 182.540 C 160.615 182.490,160.102 182.450,158.848 182.450 C 157.594 182.450,157.082 182.490,157.708 182.540 M199.460 182.540 C 200.087 182.589,201.113 182.589,201.740 182.540 C 202.367 182.490,201.854 182.450,200.600 182.450 C 199.346 182.450,198.833 182.490,199.460 182.540 M240.192 182.543 C 240.192 182.642,241.369 182.723,242.809 182.723 C 244.248 182.723,245.375 182.642,245.314 182.543 C 245.253 182.445,244.075 182.364,242.697 182.364 C 241.319 182.364,240.192 182.445,240.192 182.543 M155.496 182.834 C 154.925 183.195,155.314 183.272,155.969 182.927 C 156.299 182.752,156.407 182.611,156.209 182.611 C 156.011 182.611,155.690 182.711,155.496 182.834 M239.172 182.769 C 238.941 182.829,238.752 182.969,238.752 183.079 C 238.752 183.188,238.968 183.222,239.232 183.153 C 239.496 183.084,239.712 182.932,239.712 182.815 C 239.712 182.699,239.685 182.616,239.652 182.631 C 239.619 182.647,239.403 182.709,239.172 182.769 M70.192 184.733 L 68.518 186.563 70.372 184.769 C 71.391 183.783,72.226 182.946,72.226 182.909 C 72.226 182.627,71.628 183.162,70.192 184.733 M113.497 183.058 C 113.497 183.219,113.373 183.275,113.220 183.180 C 113.057 183.079,113.008 183.114,113.102 183.266 C 113.189 183.407,113.125 183.577,112.959 183.644 C 112.771 183.720,112.759 183.772,112.928 183.784 C 113.277 183.809,113.853 183.119,113.651 182.918 C 113.567 182.833,113.497 182.896,113.497 183.058 M196.116 183.551 C 195.895 183.808,195.610 183.953,195.481 183.874 C 195.352 183.794,195.313 183.836,195.393 183.966 C 195.586 184.278,193.553 186.269,193.288 186.028 C 193.176 185.926,193.158 185.971,193.248 186.128 C 193.338 186.285,193.220 186.525,192.986 186.661 C 192.753 186.797,192.672 186.911,192.807 186.915 C 192.942 186.919,193.911 186.059,194.961 185.003 C 196.011 183.947,196.790 183.083,196.693 183.083 C 196.596 183.083,196.336 183.294,196.116 183.551 M205.159 183.309 C 205.159 183.518,208.251 186.559,208.332 186.429 C 208.368 186.371,207.669 185.611,206.779 184.742 C 205.888 183.872,205.159 183.227,205.159 183.309 M238.152 183.276 C 238.020 183.377,237.049 184.374,235.993 185.491 L 234.074 187.522 236.293 185.368 C 237.514 184.183,238.512 183.184,238.512 183.148 C 238.512 183.042,238.407 183.080,238.152 183.276 M248.464 184.957 C 250.268 186.818,250.325 186.864,250.117 186.323 C 250.041 186.125,249.876 185.963,249.750 185.963 C 249.625 185.963,249.599 185.838,249.693 185.686 C 249.789 185.530,249.760 185.473,249.626 185.556 C 249.306 185.754,247.571 183.954,247.806 183.668 C 247.907 183.544,247.892 183.523,247.773 183.621 C 247.653 183.719,247.383 183.671,247.173 183.515 C 246.963 183.359,247.544 184.008,248.464 184.957 M111.350 184.870 L 110.282 186.083 111.458 184.951 C 112.105 184.329,112.586 183.784,112.526 183.739 C 112.466 183.694,111.937 184.204,111.350 184.870 M152.769 184.443 C 152.023 185.190,151.685 185.723,151.960 185.723 C 151.998 185.723,152.507 185.237,153.089 184.643 C 153.672 184.049,154.037 183.563,153.899 183.563 C 153.762 183.563,153.253 183.959,152.769 184.443 M82.304 185.363 C 83.154 186.221,83.903 186.923,83.969 186.923 C 84.035 186.923,83.394 186.221,82.543 185.363 C 81.693 184.505,80.944 183.803,80.878 183.803 C 80.812 183.803,81.453 184.505,82.304 185.363 M123.929 185.237 C 124.709 186.025,125.406 186.612,125.478 186.540 C 125.549 186.468,125.339 186.204,125.011 185.952 C 124.683 185.700,124.513 185.491,124.632 185.488 C 124.752 185.485,124.656 185.269,124.420 185.009 C 124.184 184.748,123.901 184.590,123.791 184.658 C 123.681 184.726,123.453 184.562,123.285 184.292 C 123.117 184.023,122.874 183.803,122.745 183.803 C 122.616 183.803,123.149 184.448,123.929 185.237 M165.619 185.126 C 166.109 185.639,166.550 186.010,166.597 185.951 C 166.645 185.891,166.243 185.472,165.705 185.018 L 164.727 184.193 165.619 185.126 M166.546 186.353 C 166.521 186.703,167.211 187.278,167.412 187.077 C 167.497 186.992,167.434 186.923,167.272 186.923 C 167.111 186.923,167.055 186.798,167.149 186.646 C 167.251 186.482,167.216 186.433,167.064 186.527 C 166.923 186.614,166.753 186.550,166.686 186.384 C 166.610 186.196,166.557 186.185,166.546 186.353 M68.225 188.962 C 68.226 189.886,68.270 190.235,68.321 189.737 C 68.373 189.239,68.373 188.483,68.320 188.057 C 68.267 187.631,68.224 188.038,68.225 188.962 M167.668 190.762 C 167.736 192.280,167.832 193.566,167.880 193.621 C 168.039 193.805,167.927 190.419,167.734 189.202 C 167.611 188.431,167.587 188.988,167.668 190.762 M109.502 190.282 C 109.502 191.404,109.543 191.863,109.594 191.302 C 109.644 190.741,109.644 189.823,109.594 189.262 C 109.543 188.701,109.502 189.160,109.502 190.282 M126.030 189.082 C 126.030 189.544,126.080 189.733,126.140 189.502 C 126.201 189.271,126.201 188.893,126.140 188.662 C 126.080 188.431,126.030 188.620,126.030 189.082 M233.779 189.322 C 233.779 189.916,233.825 190.159,233.883 189.862 C 233.940 189.565,233.940 189.079,233.883 188.782 C 233.825 188.485,233.779 188.728,233.779 189.322 M150.800 200.480 C 150.800 206.023,150.831 208.256,150.870 205.443 C 150.908 202.629,150.908 198.094,150.870 195.365 C 150.831 192.635,150.800 194.937,150.800 200.480 M192.054 193.641 C 192.054 195.291,192.092 195.966,192.139 195.141 C 192.186 194.316,192.186 192.966,192.139 192.142 C 192.092 191.317,192.054 191.992,192.054 193.641 M249.859 192.322 C 249.860 192.981,249.907 193.223,249.962 192.858 C 250.017 192.493,250.016 191.953,249.959 191.658 C 249.902 191.363,249.857 191.662,249.859 192.322 M378.460 192.921 C 378.460 193.383,378.509 193.572,378.570 193.341 C 378.630 193.110,378.630 192.732,378.570 192.501 C 378.509 192.271,378.460 192.460,378.460 192.921 M68.698 194.361 C 68.698 195.087,68.743 195.384,68.798 195.021 C 68.853 194.658,68.853 194.064,68.798 193.701 C 68.743 193.338,68.698 193.635,68.698 194.361 M21.411 194.361 C 21.411 194.823,21.461 195.012,21.521 194.781 C 21.581 194.550,21.581 194.172,21.521 193.941 C 21.461 193.710,21.411 193.899,21.411 194.361 M126.520 194.601 C 126.520 195.195,126.567 195.438,126.624 195.141 C 126.681 194.844,126.681 194.358,126.624 194.061 C 126.567 193.764,126.520 194.007,126.520 194.601 M167.803 196.761 C 167.803 197.618,167.847 197.969,167.900 197.540 C 167.953 197.112,167.953 196.410,167.900 195.981 C 167.847 195.552,167.803 195.903,167.803 196.761 M232.832 196.881 C 232.833 197.804,232.877 198.153,232.929 197.655 C 232.981 197.157,232.980 196.401,232.927 195.975 C 232.874 195.549,232.831 195.957,232.832 196.881 M249.382 196.761 C 249.382 197.487,249.427 197.783,249.482 197.421 C 249.537 197.058,249.537 196.464,249.482 196.101 C 249.427 195.738,249.382 196.035,249.382 196.761 M208.584 197.001 C 208.584 197.594,208.630 197.837,208.688 197.540 C 208.745 197.244,208.745 196.758,208.688 196.461 C 208.630 196.164,208.584 196.407,208.584 197.001 M85.740 198.920 C 85.740 199.778,85.783 200.129,85.836 199.700 C 85.890 199.271,85.890 198.569,85.836 198.140 C 85.783 197.711,85.740 198.062,85.740 198.920 M191.579 201.920 C 191.579 204.031,191.616 204.863,191.660 203.768 C 191.705 202.673,191.705 200.945,191.660 199.929 C 191.615 198.912,191.579 199.808,191.579 201.920 M109.959 199.280 C 109.961 199.808,110.010 199.996,110.068 199.697 C 110.125 199.399,110.123 198.967,110.063 198.737 C 110.003 198.508,109.956 198.752,109.959 199.280 M126.990 200.120 C 126.990 200.582,127.040 200.771,127.100 200.540 C 127.160 200.309,127.160 199.931,127.100 199.700 C 127.040 199.469,126.990 199.658,126.990 200.120 M232.352 201.200 C 232.353 202.124,232.397 202.472,232.449 201.974 C 232.501 201.476,232.500 200.721,232.447 200.295 C 232.394 199.869,232.351 200.276,232.352 201.200 M208.129 202.999 C 208.129 204.517,208.168 205.138,208.216 204.379 C 208.263 203.620,208.263 202.379,208.216 201.620 C 208.168 200.861,208.129 201.482,208.129 202.999 M69.663 202.759 C 69.663 203.617,69.706 203.968,69.760 203.539 C 69.813 203.110,69.813 202.409,69.760 201.980 C 69.706 201.551,69.663 201.902,69.663 202.759 M127.027 205.639 C 127.027 207.289,127.065 207.963,127.112 207.139 C 127.159 206.314,127.159 204.964,127.112 204.139 C 127.065 203.314,127.027 203.989,127.027 205.639 M70.143 207.079 C 70.143 207.936,70.186 208.287,70.240 207.858 C 70.293 207.430,70.293 206.728,70.240 206.299 C 70.186 205.870,70.143 206.221,70.143 207.079 M86.623 206.345 C 86.623 206.733,86.708 207.103,86.812 207.168 C 86.917 207.232,86.959 206.915,86.906 206.462 C 86.788 205.453,86.623 205.385,86.623 206.345 M110.438 206.959 C 110.441 207.487,110.490 207.674,110.548 207.376 C 110.605 207.077,110.603 206.645,110.543 206.416 C 110.483 206.187,110.436 206.431,110.438 206.959 M167.578 210.798 C 167.579 212.382,167.617 212.998,167.664 212.168 C 167.711 211.338,167.711 210.042,167.664 209.289 C 167.616 208.535,167.578 209.214,167.578 210.798 M191.076 210.078 C 191.078 210.870,191.122 211.165,191.176 210.734 C 191.229 210.302,191.228 209.654,191.173 209.294 C 191.119 208.933,191.075 209.286,191.076 210.078 M21.411 209.958 C 21.411 210.420,21.461 210.609,21.521 210.378 C 21.581 210.147,21.581 209.769,21.521 209.538 C 21.461 209.307,21.411 209.496,21.411 209.958 M70.623 210.918 C 70.623 211.776,70.666 212.127,70.719 211.698 C 70.773 211.269,70.773 210.567,70.719 210.138 C 70.666 209.709,70.623 210.060,70.623 210.918 M87.183 211.638 C 87.183 212.627,87.226 213.032,87.277 212.537 C 87.329 212.043,87.329 211.233,87.277 210.738 C 87.226 210.243,87.183 210.648,87.183 211.638 M110.944 213.077 C 110.944 214.331,110.985 214.844,111.034 214.217 C 111.084 213.590,111.084 212.564,111.034 211.938 C 110.985 211.311,110.944 211.824,110.944 213.077 M127.498 213.317 C 127.498 214.439,127.540 214.898,127.590 214.337 C 127.641 213.776,127.641 212.858,127.590 212.298 C 127.540 211.737,127.498 212.196,127.498 213.317 M207.614 212.118 C 207.614 212.579,207.664 212.768,207.724 212.537 C 207.784 212.307,207.784 211.929,207.724 211.698 C 207.664 211.467,207.614 211.656,207.614 212.118 M247.465 213.197 C 247.466 213.989,247.511 214.284,247.564 213.853 C 247.618 213.422,247.617 212.774,247.562 212.413 C 247.507 212.053,247.464 212.406,247.465 213.197 M71.110 215.237 C 71.110 216.359,71.151 216.818,71.201 216.257 C 71.252 215.696,71.252 214.778,71.201 214.217 C 71.151 213.656,71.110 214.115,71.110 215.237 M167.356 214.338 C 167.293 214.503,167.269 218.741,167.304 223.756 L 167.367 232.873 167.487 223.455 C 167.553 218.275,167.576 214.037,167.539 214.037 C 167.502 214.037,167.420 214.173,167.356 214.338 M87.582 215.343 C 87.582 215.797,87.665 216.220,87.767 216.282 C 87.868 216.345,87.911 215.974,87.862 215.457 C 87.751 214.296,87.582 214.228,87.582 215.343 M207.169 217.397 C 207.169 218.914,207.208 219.535,207.256 218.776 C 207.304 218.017,207.304 216.776,207.256 216.017 C 207.208 215.258,207.169 215.879,207.169 217.397 M246.987 217.157 C 246.987 218.014,247.031 218.365,247.084 217.936 C 247.137 217.507,247.137 216.806,247.084 216.377 C 247.031 215.948,246.987 216.299,246.987 217.157 M230.433 219.436 C 230.434 220.360,230.477 220.708,230.529 220.211 C 230.581 219.713,230.580 218.957,230.527 218.531 C 230.474 218.105,230.432 218.512,230.433 219.436 M190.521 222.364 C 190.456 224.634,190.486 226.408,190.588 226.305 C 190.690 226.203,190.744 224.345,190.707 222.177 L 190.641 218.236 190.521 222.364 M71.377 219.316 C 71.462 219.778,71.548 220.391,71.568 220.679 C 71.589 220.967,71.674 221.160,71.759 221.108 C 71.950 220.989,71.646 218.896,71.402 218.654 C 71.304 218.556,71.292 218.854,71.377 219.316 M88.115 219.676 C 88.112 220.072,88.197 220.666,88.302 220.996 L 88.494 221.596 88.490 220.996 C 88.488 220.666,88.403 220.072,88.302 219.676 L 88.119 218.956 88.115 219.676 M151.170 231.146 L 151.290 242.951 151.352 231.328 C 151.386 224.935,151.332 219.623,151.232 219.522 C 151.132 219.422,151.104 224.652,151.170 231.146 M246.508 220.996 C 246.508 221.854,246.551 222.205,246.604 221.776 C 246.658 221.347,246.658 220.645,246.604 220.216 C 246.551 219.787,246.508 220.138,246.508 220.996 M127.950 220.756 C 127.950 221.218,127.999 221.407,128.060 221.176 C 128.120 220.945,128.120 220.567,128.060 220.336 C 127.999 220.105,127.950 220.294,127.950 220.756 M111.393 221.716 C 111.393 222.178,111.443 222.367,111.503 222.136 C 111.563 221.905,111.563 221.527,111.503 221.296 C 111.443 221.065,111.393 221.254,111.393 221.716 M72.066 223.155 C 72.066 224.145,72.109 224.550,72.160 224.055 C 72.212 223.560,72.212 222.750,72.160 222.256 C 72.109 221.761,72.066 222.166,72.066 223.155 M206.687 224.355 C 206.687 225.741,206.727 226.308,206.776 225.615 C 206.824 224.922,206.824 223.788,206.776 223.095 C 206.727 222.403,206.687 222.969,206.687 224.355 M229.955 224.115 C 229.955 225.105,229.997 225.510,230.049 225.015 C 230.101 224.520,230.101 223.710,230.049 223.215 C 229.997 222.720,229.955 223.125,229.955 224.115 M127.913 224.761 C 127.903 225.578,127.984 226.302,128.093 226.369 C 128.203 226.437,128.248 225.876,128.195 225.124 C 128.057 223.182,127.935 223.025,127.913 224.761 M246.035 225.315 C 246.035 226.437,246.076 226.896,246.127 226.335 C 246.177 225.774,246.177 224.856,246.127 224.295 C 246.076 223.734,246.035 224.193,246.035 225.315 M88.546 224.375 C 88.548 224.826,88.657 225.357,88.789 225.555 C 88.957 225.806,88.982 225.590,88.872 224.835 C 88.677 223.491,88.541 223.299,88.546 224.375 M72.387 227.115 C 72.463 227.906,72.566 228.599,72.616 228.654 C 72.790 228.848,72.655 226.866,72.453 226.275 C 72.321 225.886,72.297 226.182,72.387 227.115 M128.190 227.954 C 128.190 228.416,128.239 228.605,128.300 228.374 C 128.360 228.143,128.360 227.765,128.300 227.534 C 128.239 227.304,128.190 227.493,128.190 227.954 M229.475 228.914 C 229.475 229.904,229.517 230.309,229.569 229.814 C 229.621 229.319,229.621 228.509,229.569 228.014 C 229.517 227.519,229.475 227.924,229.475 228.914 M111.873 228.914 C 111.873 229.376,111.923 229.565,111.983 229.334 C 112.043 229.103,112.043 228.725,111.983 228.494 C 111.923 228.263,111.873 228.452,111.873 228.914 M245.632 228.888 C 245.543 229.331,245.484 230.031,245.499 230.444 C 245.518 230.961,245.594 230.789,245.744 229.888 C 245.983 228.447,245.889 227.605,245.632 228.888 M89.022 229.260 C 89.022 229.714,89.105 230.137,89.207 230.200 C 89.308 230.262,89.351 229.891,89.301 229.374 C 89.191 228.214,89.022 228.145,89.022 229.260 M190.126 230.594 C 190.126 231.716,190.167 232.175,190.218 231.614 C 190.268 231.053,190.268 230.135,190.218 229.574 C 190.167 229.013,190.126 229.472,190.126 230.594 M72.746 230.114 C 72.742 230.444,72.832 230.930,72.945 231.194 L 73.152 231.674 73.145 231.194 C 73.141 230.930,73.051 230.444,72.945 230.114 L 72.753 229.514 72.746 230.114 M128.440 231.314 C 128.440 231.908,128.486 232.151,128.544 231.854 C 128.601 231.557,128.601 231.071,128.544 230.774 C 128.486 230.477,128.440 230.720,128.440 231.314 M206.215 231.648 C 206.145 231.833,206.124 232.399,206.169 232.908 C 206.245 233.765,206.259 233.741,206.365 232.573 C 206.481 231.287,206.443 231.054,206.215 231.648 M112.388 234.193 C 112.388 235.711,112.427 236.332,112.475 235.573 C 112.522 234.814,112.522 233.572,112.475 232.813 C 112.427 232.055,112.388 232.675,112.388 234.193 M228.995 233.713 C 228.995 234.703,229.037 235.108,229.089 234.613 C 229.141 234.118,229.141 233.308,229.089 232.813 C 229.037 232.319,228.995 232.723,228.995 233.713 M245.152 232.727 C 245.064 233.171,245.004 233.871,245.019 234.283 C 245.038 234.800,245.114 234.628,245.264 233.727 C 245.503 232.286,245.409 231.444,245.152 232.727 M73.502 233.953 C 73.502 234.811,73.546 235.162,73.599 234.733 C 73.652 234.304,73.652 233.602,73.599 233.173 C 73.546 232.744,73.502 233.095,73.502 233.953 M89.502 234.059 C 89.502 234.513,89.585 234.936,89.686 234.999 C 89.788 235.061,89.831 234.690,89.781 234.173 C 89.671 233.013,89.502 232.944,89.502 234.059 M128.474 237.792 C 128.474 240.234,128.510 241.233,128.553 240.012 C 128.597 238.791,128.597 236.794,128.553 235.573 C 128.510 234.352,128.474 235.351,128.474 237.792 M189.858 234.433 C 189.858 234.895,189.907 235.084,189.967 234.853 C 190.028 234.622,190.028 234.244,189.967 234.013 C 189.907 233.782,189.858 233.971,189.858 234.433 M244.644 236.726 C 244.554 237.208,244.534 237.656,244.600 237.722 C 244.666 237.787,244.794 237.447,244.884 236.966 C 244.975 236.484,244.995 236.036,244.929 235.970 C 244.863 235.904,244.735 236.244,244.644 236.726 M228.470 237.233 C 228.450 237.519,228.364 237.951,228.279 238.193 C 228.160 238.531,228.192 238.570,228.418 238.362 C 228.579 238.213,228.666 237.781,228.609 237.402 C 228.537 236.916,228.496 236.866,228.470 237.233 M112.298 237.927 C 112.298 238.264,112.395 238.480,112.515 238.406 C 112.635 238.332,112.676 238.056,112.607 237.792 C 112.434 237.132,112.298 237.191,112.298 237.927 M73.809 238.192 C 74.030 239.112,74.145 239.199,74.145 238.446 C 74.145 238.102,74.033 237.751,73.896 237.667 C 73.732 237.565,73.702 237.746,73.809 238.192 M205.789 237.744 C 205.618 238.021,205.545 242.097,205.708 242.261 C 205.784 242.337,205.880 241.308,205.922 239.975 C 205.964 238.642,205.978 237.552,205.953 237.552 C 205.928 237.552,205.854 237.638,205.789 237.744 M90.066 240.192 C 90.066 241.314,90.107 241.773,90.158 241.212 C 90.208 240.651,90.208 239.733,90.158 239.172 C 90.107 238.611,90.066 239.070,90.066 240.192 M112.870 241.632 C 112.870 243.281,112.908 243.956,112.955 243.131 C 113.002 242.307,113.002 240.957,112.955 240.132 C 112.908 239.307,112.870 239.982,112.870 241.632 M167.315 239.832 C 167.317 240.492,167.364 240.733,167.419 240.369 C 167.474 240.004,167.472 239.464,167.415 239.169 C 167.359 238.874,167.313 239.172,167.315 239.832 M189.618 239.472 C 189.618 239.934,189.667 240.123,189.727 239.892 C 189.788 239.661,189.788 239.283,189.727 239.052 C 189.667 238.821,189.618 239.010,189.618 239.472 M244.191 240.112 C 244.103 240.200,244.031 240.758,244.031 241.352 C 244.031 242.715,244.184 242.581,244.328 241.092 C 244.445 239.886,244.442 239.861,244.191 240.112 M189.613 243.352 C 189.585 244.760,189.492 246.109,189.407 246.351 C 189.290 246.680,189.323 246.725,189.535 246.530 C 189.730 246.351,189.795 245.420,189.742 243.531 L 189.665 240.792 189.613 243.352 M227.943 242.765 C 227.877 243.323,227.914 243.687,228.026 243.576 C 228.138 243.464,228.192 243.008,228.146 242.562 C 228.064 241.772,228.059 241.777,227.943 242.765 M205.251 245.471 C 205.251 247.121,205.290 247.795,205.337 246.971 C 205.383 246.146,205.383 244.796,205.337 243.971 C 205.290 243.146,205.251 243.821,205.251 245.471 M90.466 243.811 C 90.468 244.130,90.575 244.553,90.705 244.751 C 90.871 245.004,90.895 244.862,90.787 244.271 C 90.597 243.236,90.461 243.041,90.466 243.811 M74.937 244.751 C 74.937 245.477,74.982 245.774,75.037 245.411 C 75.092 245.048,75.092 244.454,75.037 244.091 C 74.982 243.728,74.937 244.025,74.937 244.751 M128.954 247.319 C 128.969 250.319,129.051 251.278,129.309 251.518 C 129.591 251.780,129.611 251.753,129.434 251.350 C 129.318 251.086,129.158 249.196,129.078 247.151 L 128.933 243.431 128.954 247.319 M243.711 243.951 C 243.623 244.039,243.561 244.390,243.572 244.731 C 243.592 245.340,243.596 245.338,243.804 244.643 C 244.022 243.913,243.990 243.673,243.711 243.951 M151.255 247.510 C 151.254 248.698,151.295 249.214,151.345 248.658 C 151.395 248.101,151.396 247.129,151.346 246.498 C 151.297 245.867,151.256 246.323,151.255 247.510 M113.214 248.301 C 113.257 249.450,113.365 250.466,113.454 250.559 C 113.544 250.652,113.583 249.788,113.540 248.639 C 113.498 247.491,113.390 246.475,113.300 246.382 C 113.211 246.289,113.172 247.152,113.214 248.301 M75.414 247.990 C 75.415 248.650,75.462 248.892,75.517 248.527 C 75.572 248.162,75.571 247.622,75.514 247.327 C 75.457 247.032,75.412 247.331,75.414 247.990 M227.497 247.510 C 227.465 247.906,227.394 248.500,227.340 248.830 C 227.256 249.340,227.278 249.367,227.492 249.006 C 227.630 248.773,227.701 248.179,227.649 247.686 C 227.565 246.885,227.549 246.866,227.497 247.510 M167.081 248.710 C 167.082 249.502,167.127 249.797,167.180 249.366 C 167.234 248.935,167.233 248.287,167.178 247.926 C 167.123 247.566,167.080 247.918,167.081 248.710 M91.026 250.750 C 91.026 251.872,91.067 252.331,91.118 251.770 C 91.168 251.209,91.168 250.291,91.118 249.730 C 91.067 249.169,91.026 249.628,91.026 250.750 M204.830 251.050 C 204.751 251.347,204.684 252.305,204.682 253.180 C 204.680 254.298,204.572 254.859,204.319 255.069 C 204.121 255.233,203.968 255.489,203.978 255.638 C 203.990 255.807,204.043 255.795,204.119 255.607 C 204.185 255.442,204.356 255.377,204.497 255.464 C 204.641 255.554,204.684 255.511,204.595 255.367 C 204.507 255.225,204.530 255.074,204.644 255.029 C 204.822 254.961,205.209 250.510,205.037 250.510 C 205.003 250.510,204.910 250.753,204.830 251.050 M151.250 251.126 C 151.171 251.333,151.228 251.624,151.378 251.774 C 151.580 251.976,151.650 251.880,151.650 251.398 C 151.650 250.676,151.470 250.553,151.250 251.126 M113.773 252.955 C 113.753 253.970,113.818 254.851,113.917 254.912 C 114.016 254.974,114.067 254.413,114.029 253.667 C 113.912 251.323,113.811 251.041,113.773 252.955 M167.034 251.530 C 167.061 251.695,167.017 251.992,166.936 252.190 C 166.714 252.738,166.622 255.550,166.827 255.549 C 166.926 255.549,167.007 254.853,167.007 254.003 C 167.007 253.153,167.115 252.391,167.247 252.310 C 167.564 252.113,167.556 251.230,167.236 251.230 C 167.098 251.230,167.007 251.365,167.034 251.530 M189.157 253.269 C 189.158 254.061,189.203 254.356,189.256 253.925 C 189.309 253.494,189.308 252.846,189.254 252.485 C 189.199 252.125,189.155 252.478,189.157 253.269 M227.042 254.529 C 227.012 255.792,227.087 256.509,227.249 256.509 C 227.388 256.509,227.426 256.633,227.332 256.786 C 227.233 256.945,227.265 256.998,227.407 256.910 C 227.543 256.827,228.213 257.350,228.897 258.073 C 229.581 258.796,230.213 259.388,230.301 259.388 C 230.389 259.388,229.739 258.659,228.858 257.768 L 227.254 256.149 227.172 254.349 L 227.090 252.549 227.042 254.529 M241.627 255.675 C 241.460 255.876,241.393 256.110,241.478 256.195 C 241.562 256.279,241.632 256.216,241.632 256.055 C 241.632 255.893,241.756 255.838,241.909 255.932 C 242.072 256.033,242.121 255.998,242.027 255.846 C 241.940 255.705,242.004 255.535,242.170 255.468 C 242.358 255.393,242.370 255.340,242.201 255.328 C 242.052 255.317,241.794 255.474,241.627 255.675 M90.937 256.155 C 90.770 256.356,90.703 256.590,90.788 256.674 C 90.872 256.759,90.942 256.696,90.942 256.535 C 90.942 256.373,91.050 256.307,91.182 256.389 C 91.314 256.470,91.422 256.369,91.422 256.163 C 91.422 255.694,91.321 255.692,90.937 256.155 M190.882 257.469 C 191.799 258.392,192.603 259.148,192.669 259.148 C 192.735 259.148,192.039 258.392,191.122 257.469 C 190.205 256.545,189.401 255.789,189.335 255.789 C 189.269 255.789,189.965 256.545,190.882 257.469 M77.984 257.349 C 78.701 258.074,79.342 258.668,79.408 258.668 C 79.474 258.668,78.941 258.074,78.224 257.349 C 77.508 256.623,76.867 256.029,76.801 256.029 C 76.735 256.029,77.268 256.623,77.984 257.349 M165.093 257.343 C 164.379 258.065,163.870 258.731,163.961 258.822 C 164.053 258.914,164.127 258.856,164.127 258.694 C 164.127 258.532,164.252 258.477,164.404 258.571 C 164.560 258.668,164.617 258.638,164.534 258.503 C 164.341 258.192,165.896 256.683,166.161 256.924 C 166.272 257.026,166.290 256.980,166.200 256.823 C 166.110 256.667,166.228 256.427,166.462 256.291 C 166.695 256.155,166.775 256.040,166.638 256.036 C 166.502 256.032,165.806 256.620,165.093 257.343 M202.525 257.343 C 201.812 258.065,201.276 258.690,201.334 258.731 C 201.392 258.772,202.024 258.181,202.738 257.417 C 204.382 255.657,204.239 255.607,202.525 257.343 M114.831 256.861 C 115.087 257.055,115.199 257.217,115.080 257.221 C 114.960 257.225,115.056 257.442,115.292 257.703 C 115.528 257.964,115.815 258.119,115.931 258.048 C 116.046 257.976,116.205 258.087,116.284 258.293 C 116.363 258.499,116.547 258.668,116.692 258.668 C 116.838 258.668,116.480 258.182,115.897 257.588 C 115.314 256.995,114.731 256.509,114.601 256.509 C 114.472 256.509,114.575 256.667,114.831 256.861 M127.404 257.636 C 126.816 258.257,126.507 258.636,126.717 258.478 C 126.927 258.321,127.170 258.246,127.257 258.310 C 127.343 258.375,127.360 258.356,127.294 258.268 C 127.105 258.016,127.930 257.222,128.204 257.391 C 128.339 257.475,128.376 257.425,128.286 257.280 C 128.197 257.136,128.316 256.907,128.549 256.771 C 128.783 256.635,128.862 256.520,128.724 256.516 C 128.587 256.512,127.993 257.016,127.404 257.636 M240.435 257.345 C 239.990 257.805,239.671 258.211,239.728 258.247 C 239.785 258.283,240.226 257.907,240.707 257.411 C 241.188 256.915,241.507 256.509,241.414 256.509 C 241.322 256.509,240.881 256.885,240.435 257.345 M89.789 257.780 C 89.367 258.215,89.025 258.674,89.029 258.800 C 89.034 258.925,89.148 258.837,89.284 258.603 C 89.420 258.370,89.621 258.233,89.730 258.301 C 89.839 258.368,90.061 258.262,90.224 258.066 C 90.387 257.869,90.426 257.705,90.311 257.701 C 90.196 257.697,90.312 257.535,90.568 257.341 C 90.824 257.147,90.926 256.989,90.795 256.989 C 90.663 256.989,90.211 257.345,89.789 257.780 M153.227 257.731 C 153.613 258.205,153.978 258.553,154.037 258.503 C 154.096 258.454,153.780 258.065,153.334 257.641 L 152.524 256.869 153.227 257.731 M86.888 259.408 C 86.572 259.535,86.378 259.703,86.458 259.783 C 86.537 259.862,86.796 259.843,87.032 259.740 C 87.269 259.636,87.552 259.572,87.660 259.596 C 87.769 259.620,87.790 259.529,87.706 259.394 C 87.623 259.259,87.534 259.155,87.508 259.163 C 87.483 259.172,87.204 259.282,86.888 259.408 M199.160 259.528 C 198.731 259.766,198.676 259.862,198.966 259.864 C 199.189 259.866,199.440 259.758,199.523 259.624 C 199.605 259.490,199.790 259.453,199.934 259.541 C 200.089 259.637,200.125 259.591,200.023 259.425 C 199.929 259.273,199.831 259.159,199.806 259.172 C 199.781 259.185,199.490 259.345,199.160 259.528 M156.509 259.554 C 156.740 259.614,157.118 259.614,157.349 259.554 C 157.579 259.493,157.391 259.444,156.929 259.444 C 156.467 259.444,156.278 259.493,156.509 259.554 M85.183 259.868 L 84.343 260.045 85.243 260.076 C 85.738 260.094,86.143 260.000,86.143 259.868 C 86.143 259.736,86.116 259.642,86.083 259.660 C 86.050 259.677,85.645 259.771,85.183 259.868 M196.101 260.033 C 196.332 260.094,196.710 260.094,196.941 260.033 C 197.172 259.973,196.983 259.924,196.521 259.924 C 196.059 259.924,195.870 259.973,196.101 260.033 M99.981 268.686 C 109.110 268.721,124.119 268.721,133.335 268.686 C 142.550 268.651,135.081 268.623,116.737 268.623 C 98.392 268.623,90.852 268.651,99.981 268.686 M256.676 272.022 C 257.410 272.738,258.057 273.277,258.114 273.220 C 258.300 273.034,256.734 271.414,256.029 271.062 C 255.517 270.806,255.682 271.051,256.676 272.022 M263.467 300.660 C 262.930 301.452,262.544 302.100,262.610 302.100 C 262.676 302.100,263.170 301.452,263.707 300.660 C 264.245 299.868,264.631 299.220,264.565 299.220 C 264.499 299.220,264.005 299.868,263.467 300.660 M261.501 303.239 C 261.079 303.732,260.762 304.259,260.889 304.259 C 260.937 304.259,261.217 303.935,261.510 303.539 C 262.088 302.757,262.083 302.562,261.501 303.239 M261.068 305.699 C 261.350 306.095,261.634 306.419,261.700 306.419 C 261.766 306.419,261.590 306.095,261.308 305.699 C 261.026 305.303,260.741 304.979,260.675 304.979 C 260.609 304.979,260.786 305.303,261.068 305.699 M124.365 306.769 C 125.088 307.358,126.068 308.303,126.542 308.869 C 127.017 309.435,127.407 309.774,127.410 309.623 C 127.415 309.295,123.643 305.699,123.293 305.699 C 123.160 305.699,123.643 306.181,124.365 306.769 M103.419 307.978 C 102.836 308.572,102.463 309.048,102.590 309.036 C 102.813 309.014,104.783 306.899,104.580 306.899 C 104.525 306.899,104.002 307.385,103.419 307.978 M222.491 314.817 C 222.491 315.279,222.541 315.468,222.601 315.237 C 222.661 315.006,222.661 314.628,222.601 314.397 C 222.541 314.166,222.491 314.355,222.491 314.817 M102.699 327.610 C 102.699 327.651,103.050 328.002,103.479 328.389 L 104.259 329.094 103.554 328.314 C 102.897 327.587,102.699 327.424,102.699 327.610 M226.696 330.294 C 226.970 330.690,227.659 331.446,228.227 331.974 C 229.103 332.788,229.064 332.715,227.966 331.494 C 226.230 329.564,226.114 329.455,226.696 330.294 M106.059 330.392 C 106.389 330.662,106.767 330.884,106.899 330.885 C 107.155 330.887,106.721 330.554,105.939 330.150 C 105.620 329.985,105.660 330.067,106.059 330.392 M324.891 332.993 L 321.896 336.053 324.955 333.057 C 327.797 330.274,328.123 329.934,327.951 329.934 C 327.916 329.934,326.539 331.311,324.891 332.993 M192.985 384.815 C 193.349 384.870,193.889 384.869,194.184 384.812 C 194.480 384.755,194.181 384.710,193.521 384.712 C 192.861 384.714,192.620 384.760,192.985 384.815 M205.942 384.815 C 206.307 384.870,206.847 384.869,207.142 384.812 C 207.437 384.755,207.139 384.710,206.479 384.712 C 205.819 384.714,205.577 384.760,205.942 384.815 " stroke="none" fill="#636565" fill-rule="evenodd"></path><path id="path4" d="M190.702 20.090 C 191.131 20.143,191.833 20.143,192.262 20.090 C 192.690 20.036,192.340 19.993,191.482 19.993 C 190.624 19.993,190.273 20.036,190.702 20.090 M200.780 20.093 C 201.473 20.141,202.606 20.141,203.299 20.093 C 203.992 20.044,203.425 20.005,202.040 20.005 C 200.654 20.005,200.087 20.044,200.780 20.093 M325.255 72.226 C 325.770 72.753,326.246 73.185,326.312 73.185 C 326.378 73.185,326.010 72.753,325.495 72.226 C 324.979 71.698,324.504 71.266,324.438 71.266 C 324.372 71.266,324.739 71.698,325.255 72.226 M341.755 121.108 C 342.120 121.163,342.660 121.162,342.955 121.105 C 343.250 121.048,342.951 121.003,342.292 121.004 C 341.632 121.006,341.390 121.053,341.755 121.108 M344.271 121.109 C 344.700 121.163,345.402 121.163,345.831 121.109 C 346.260 121.056,345.909 121.013,345.051 121.013 C 344.193 121.013,343.842 121.056,344.271 121.109 M356.569 123.170 C 356.569 123.212,356.920 123.563,357.349 123.950 L 358.128 124.655 357.424 123.875 C 356.767 123.148,356.569 122.985,356.569 123.170 M340.925 138.631 C 342.284 138.674,344.444 138.674,345.724 138.631 C 347.003 138.588,345.891 138.553,343.251 138.553 C 340.612 138.553,339.565 138.589,340.925 138.631 M202.939 164.307 C 206.800 164.344,213.116 164.344,216.977 164.307 C 220.837 164.270,217.678 164.240,209.958 164.240 C 202.238 164.240,199.079 164.270,202.939 164.307 M200.660 182.049 C 200.891 182.109,201.269 182.109,201.500 182.049 C 201.731 181.989,201.542 181.939,201.080 181.939 C 200.618 181.939,200.429 181.989,200.660 182.049 M242.112 181.977 C 242.112 182.029,242.482 182.114,242.935 182.167 C 243.387 182.220,243.705 182.178,243.640 182.073 C 243.524 181.886,242.112 181.797,242.112 181.977 M70.646 184.033 C 70.163 184.556,69.650 184.961,69.508 184.933 C 69.365 184.906,69.243 185.022,69.237 185.192 C 69.231 185.361,69.064 185.603,68.866 185.728 C 68.668 185.853,68.618 185.957,68.754 185.959 C 68.890 185.961,69.642 185.315,70.426 184.523 C 71.209 183.731,71.777 183.083,71.688 183.083 C 71.598 183.083,71.130 183.511,70.646 184.033 M194.708 184.726 C 194.056 185.365,193.365 186.094,193.175 186.346 C 192.985 186.597,193.552 186.104,194.435 185.250 C 195.318 184.396,196.041 183.667,196.041 183.630 C 196.041 183.457,195.812 183.646,194.708 184.726 M206.713 184.758 C 207.360 185.414,207.940 185.902,208.001 185.841 C 208.114 185.728,205.890 183.563,205.661 183.563 C 205.593 183.563,206.066 184.101,206.713 184.758 M237.035 184.155 C 236.752 184.480,236.402 184.679,236.257 184.596 C 236.112 184.514,236.075 184.536,236.175 184.647 C 236.424 184.921,235.389 185.986,235.058 185.797 C 234.912 185.714,234.874 185.735,234.974 185.845 C 235.073 185.954,234.969 186.269,234.742 186.543 C 234.516 186.818,235.110 186.290,236.062 185.369 C 237.014 184.449,237.792 183.666,237.792 183.630 C 237.792 183.423,237.487 183.635,237.035 184.155 M248.461 184.713 C 249.116 185.401,249.680 185.963,249.714 185.963 C 249.963 185.963,249.314 185.207,248.384 184.413 L 247.271 183.464 248.461 184.713 M123.935 185.003 C 124.451 185.531,124.926 185.963,124.992 185.963 C 125.058 185.963,124.691 185.531,124.175 185.003 C 123.660 184.475,123.184 184.043,123.118 184.043 C 123.052 184.043,123.420 184.475,123.935 185.003 M164.630 184.103 C 164.686 184.136,165.163 184.541,165.690 185.003 L 166.647 185.843 165.820 184.943 C 165.365 184.448,164.888 184.043,164.760 184.043 C 164.632 184.043,164.573 184.070,164.630 184.103 M82.539 185.358 C 83.119 185.949,83.630 186.396,83.674 186.352 C 83.773 186.253,81.823 184.283,81.625 184.283 C 81.548 184.283,81.958 184.767,82.539 185.358 M110.963 185.063 L 110.258 185.843 111.038 185.138 C 111.765 184.481,111.928 184.283,111.743 184.283 C 111.701 184.283,111.350 184.634,110.963 185.063 M125.752 187.522 C 125.752 187.654,125.906 188.032,126.095 188.362 C 126.283 188.692,126.438 188.854,126.438 188.722 C 126.438 188.590,126.283 188.212,126.095 187.882 C 125.906 187.552,125.752 187.391,125.752 187.522 M250.335 188.602 C 250.335 189.196,250.382 189.439,250.439 189.142 C 250.496 188.845,250.496 188.359,250.439 188.062 C 250.382 187.765,250.335 188.008,250.335 188.602 M209.039 189.802 C 209.032 190.915,209.071 191.038,209.290 190.585 C 209.472 190.206,209.475 189.816,209.298 189.265 C 209.058 188.517,209.047 188.540,209.039 189.802 M68.202 191.242 C 68.202 191.704,68.251 191.893,68.312 191.662 C 68.372 191.431,68.372 191.053,68.312 190.822 C 68.251 190.591,68.202 190.780,68.202 191.242 M126.520 192.681 C 126.520 193.275,126.567 193.518,126.624 193.221 C 126.681 192.924,126.681 192.439,126.624 192.142 C 126.567 191.845,126.520 192.088,126.520 192.681 M109.483 193.161 C 109.483 193.755,109.530 193.998,109.587 193.701 C 109.645 193.404,109.645 192.918,109.587 192.621 C 109.530 192.325,109.483 192.567,109.483 193.161 M150.532 195.681 C 150.533 196.737,150.575 197.139,150.626 196.574 C 150.677 196.010,150.676 195.146,150.624 194.655 C 150.573 194.163,150.531 194.625,150.532 195.681 M208.574 198.680 C 208.574 199.142,208.623 199.331,208.684 199.100 C 208.744 198.869,208.744 198.491,208.684 198.260 C 208.623 198.029,208.574 198.218,208.574 198.680 M109.963 201.080 C 109.963 201.674,110.010 201.917,110.067 201.620 C 110.125 201.323,110.125 200.837,110.067 200.540 C 110.010 200.243,109.963 200.486,109.963 201.080 M150.531 202.040 C 150.531 203.029,150.573 203.434,150.625 202.939 C 150.676 202.445,150.676 201.635,150.625 201.140 C 150.573 200.645,150.531 201.050,150.531 202.040 M127.000 201.800 C 127.000 202.394,127.047 202.636,127.104 202.340 C 127.161 202.043,127.161 201.557,127.104 201.260 C 127.047 200.963,127.000 201.206,127.000 201.800 M191.002 202.519 C 191.002 202.915,191.044 203.239,191.095 203.239 C 191.146 203.239,191.235 202.915,191.293 202.519 C 191.351 202.124,191.309 201.800,191.200 201.800 C 191.091 201.800,191.002 202.124,191.002 202.519 M127.230 203.719 C 127.230 204.181,127.280 204.370,127.340 204.139 C 127.400 203.908,127.400 203.530,127.340 203.299 C 127.280 203.068,127.230 203.257,127.230 203.719 M208.099 206.479 C 208.102 207.007,208.151 207.194,208.208 206.896 C 208.265 206.597,208.263 206.165,208.203 205.936 C 208.143 205.707,208.096 205.951,208.099 206.479 M190.891 208.408 C 190.798 209.151,190.776 209.812,190.842 209.878 C 190.908 209.944,191.038 209.391,191.131 208.648 C 191.224 207.905,191.246 207.243,191.180 207.177 C 191.114 207.111,190.984 207.665,190.891 208.408 M110.438 208.638 C 110.441 209.166,110.490 209.354,110.548 209.055 C 110.605 208.757,110.603 208.325,110.543 208.096 C 110.483 207.866,110.436 208.110,110.438 208.638 M150.789 214.517 C 150.789 216.827,150.825 217.771,150.869 216.617 C 150.913 215.462,150.913 213.572,150.869 212.418 C 150.825 211.263,150.789 212.208,150.789 214.517 M87.363 213.317 C 87.370 213.515,87.469 213.893,87.582 214.157 L 87.789 214.637 87.802 214.157 C 87.809 213.893,87.710 213.515,87.582 213.317 C 87.376 212.997,87.351 212.997,87.363 213.317 M110.918 216.077 C 110.921 216.605,110.970 216.792,111.028 216.494 C 111.085 216.195,111.083 215.764,111.023 215.534 C 110.963 215.305,110.916 215.549,110.918 216.077 M190.578 217.636 C 190.578 218.098,190.627 218.287,190.687 218.056 C 190.748 217.825,190.748 217.448,190.687 217.217 C 190.627 216.986,190.578 217.175,190.578 217.636 M150.690 219.596 C 150.690 219.882,150.765 220.041,150.857 219.949 C 151.116 219.690,151.153 219.076,150.909 219.076 C 150.788 219.076,150.690 219.310,150.690 219.596 M127.960 222.436 C 127.960 223.029,128.007 223.272,128.064 222.975 C 128.121 222.678,128.121 222.193,128.064 221.896 C 128.007 221.599,127.960 221.842,127.960 222.436 M111.398 223.275 C 111.401 223.803,111.450 223.991,111.507 223.692 C 111.565 223.394,111.563 222.962,111.503 222.733 C 111.443 222.503,111.396 222.747,111.398 223.275 M167.547 223.275 C 167.550 223.803,167.599 223.991,167.656 223.692 C 167.714 223.394,167.711 222.962,167.651 222.733 C 167.591 222.503,167.544 222.747,167.547 223.275 M150.771 227.714 C 150.771 228.704,150.813 229.109,150.865 228.614 C 150.916 228.119,150.916 227.310,150.865 226.815 C 150.813 226.320,150.771 226.725,150.771 227.714 M167.570 228.194 C 167.570 229.316,167.612 229.775,167.662 229.214 C 167.713 228.653,167.713 227.735,167.662 227.175 C 167.612 226.614,167.570 227.073,167.570 228.194 M190.098 227.954 C 190.098 228.416,190.147 228.605,190.207 228.374 C 190.268 228.143,190.268 227.765,190.207 227.534 C 190.147 227.304,190.098 227.493,190.098 227.954 M167.340 235.753 C 167.340 237.469,167.378 238.139,167.425 237.243 C 167.471 236.346,167.471 234.943,167.424 234.123 C 167.377 233.304,167.339 234.037,167.340 235.753 M151.244 244.151 C 151.245 244.943,151.290 245.238,151.344 244.807 C 151.397 244.375,151.396 243.728,151.341 243.367 C 151.286 243.006,151.243 243.359,151.244 244.151 M129.160 248.350 C 129.160 248.944,129.206 249.187,129.264 248.890 C 129.321 248.593,129.321 248.107,129.264 247.810 C 129.206 247.513,129.160 247.756,129.160 248.350 M113.318 251.279 C 113.306 252.018,113.322 252.034,113.562 251.522 C 113.735 251.152,113.739 250.895,113.574 250.731 C 113.410 250.566,113.327 250.744,113.318 251.279 M226.810 255.069 C 226.810 255.531,226.860 255.720,226.920 255.489 C 226.980 255.258,226.980 254.880,226.920 254.649 C 226.860 254.418,226.810 254.607,226.810 255.069 M77.624 257.229 C 78.140 257.756,78.616 258.188,78.682 258.188 C 78.748 258.188,78.380 257.756,77.864 257.229 C 77.349 256.701,76.873 256.269,76.807 256.269 C 76.741 256.269,77.109 256.701,77.624 257.229 M165.198 257.497 C 164.543 258.172,164.223 258.614,164.487 258.479 C 164.942 258.245,165.558 257.626,166.268 256.689 C 166.854 255.915,166.399 256.258,165.198 257.497 M189.694 256.509 C 189.803 256.707,190.090 257.011,190.331 257.185 C 190.572 257.359,190.697 257.619,190.609 257.762 C 190.517 257.911,190.558 257.954,190.706 257.863 C 190.847 257.776,191.189 257.991,191.466 258.343 C 191.742 258.694,192.018 258.932,192.079 258.871 C 192.140 258.810,191.583 258.173,190.842 257.454 C 190.101 256.736,189.584 256.311,189.694 256.509 M202.635 257.473 C 202.122 257.998,201.805 258.427,201.931 258.426 C 202.226 258.422,203.829 256.778,203.680 256.630 C 203.619 256.568,203.148 256.947,202.635 257.473 M227.497 257.049 C 227.920 257.866,228.474 258.432,228.708 258.287 C 228.823 258.216,228.979 258.318,229.054 258.515 C 229.130 258.711,229.372 258.939,229.593 259.023 C 229.813 259.106,229.404 258.574,228.682 257.841 C 227.220 256.355,227.095 256.272,227.497 257.049 M115.417 257.588 C 115.865 258.050,116.285 258.428,116.351 258.428 C 116.417 258.428,116.105 258.050,115.657 257.588 C 115.209 257.127,114.789 256.749,114.723 256.749 C 114.657 256.749,114.969 257.127,115.417 257.588 M240.537 257.528 L 239.832 258.308 240.612 257.604 C 241.041 257.216,241.392 256.865,241.392 256.824 C 241.392 256.638,241.194 256.802,240.537 257.528 M127.519 257.740 C 126.932 258.366,126.904 258.445,127.349 258.214 C 127.643 258.062,127.998 257.724,128.137 257.463 C 128.492 256.800,128.336 256.870,127.519 257.740 M121.598 260.038 C 121.897 260.095,122.329 260.093,122.558 260.033 C 122.788 259.973,122.543 259.926,122.016 259.929 C 121.488 259.931,121.300 259.980,121.598 260.038 M158.791 260.038 C 159.090 260.095,159.521 260.093,159.751 260.033 C 159.980 259.973,159.736 259.926,159.208 259.929 C 158.680 259.931,158.493 259.980,158.791 260.038 M66.937 265.447 C 67.931 266.506,68.146 266.697,68.146 266.517 C 68.146 266.478,67.633 265.965,67.007 265.377 L 65.867 264.307 66.937 265.447 M76.138 268.685 C 77.564 268.728,79.831 268.728,81.177 268.685 C 82.522 268.642,81.356 268.608,78.584 268.608 C 75.813 268.608,74.712 268.643,76.138 268.685 M228.729 303.239 L 227.550 304.379 228.652 303.442 C 230.197 302.129,230.228 302.100,230.059 302.100 C 229.976 302.100,229.377 302.612,228.729 303.239 M114.409 332.861 C 114.633 333.085,114.761 333.085,114.985 332.861 C 115.209 332.637,115.145 332.573,114.697 332.573 C 114.249 332.573,114.185 332.637,114.409 332.861 " stroke="none" fill="#707c7c" fill-rule="evenodd"></path></g></svg>